{"glyphs":{":":{"x_min":0,"x_max":316,"ha":316,"o":"m 154 550 q 174 550 188 536 q 202 522 202 502 q 202 482 188 468 q 174 454 154 454 q 134 454 120 468 q 106 482 106 502 q 106 522 120 536 q 134 550 154 550 z m 143 205 q 163 205 177 191 q 191 177 191 157 q 191 137 177 123 q 163 109 143 109 q 123 109 109 123 q 95 137 95 157 q 95 177 109 191 q 123 205 143 205 z"},"?":{"x_min":0,"x_max":499,"ha":499,"o":"m 216 180 q 219 249 234 298 q 248 348 268 386 q 287 423 310 454 q 332 485 352 518 q 371 551 385 590 q 399 630 402 684 q 402 692 402 699 q 402 732 394 764 q 387 796 368 823 q 350 850 322 866 q 294 883 258 885 q 253 885 249 885 q 217 885 186 872 q 155 859 130 834 q 104 809 88 774 q 73 740 71 700 q 71 692 66 689 q 62 686 56 686 q 50 686 46 690 q 41 693 41 699 q 41 701 41 702 q 43 750 62 790 q 82 829 114 856 q 145 883 184 896 q 224 909 265 909 q 271 909 277 909 q 327 907 367 888 q 407 869 434 838 q 461 807 473 770 q 485 732 485 694 q 485 688 485 682 q 483 632 465 594 q 447 556 422 523 q 396 490 366 458 q 336 426 310 387 q 283 348 264 298 q 244 248 239 179 q 239 175 236 173 q 232 171 228 171 q 223 171 220 173 q 216 175 216 178 q 216 179 216 180 z m 225 98 q 245 96 256 82 q 267 68 267 52 q 267 49 267 46 q 265 26 251 14 q 237 2 220 2 q 218 2 215 2 q 195 4 184 18 q 173 33 173 49 q 173 52 173 55 q 175 75 189 86 q 203 98 220 98 q 222 98 225 98 z"},"<":{"x_min":0,"x_max":437,"ha":437,"o":"m 335 578 q 341 578 345 574 q 349 570 350 566 q 352 561 352 558 q 352 555 350 550 q 349 546 343 541 q 321 525 293 502 q 265 478 235 450 q 205 422 174 392 q 142 361 113 332 q 142 304 175 274 q 208 245 240 218 q 273 191 302 168 q 332 145 354 129 q 360 125 361 120 q 362 115 362 113 q 362 109 360 104 q 358 99 352 94 q 347 90 341 90 q 336 90 331 94 q 304 114 272 139 q 241 164 208 192 q 174 220 140 250 q 107 280 76 311 q 70 316 70 324 q 70 331 73 339 q 76 347 80 354 q 85 360 89 364 q 96 371 115 390 q 134 408 160 432 q 185 456 213 482 q 241 507 266 528 q 291 550 310 564 q 329 578 335 578 z"},"'":{"x_min":0,"x_max":126,"ha":126,"o":"m 49 843 q 46 834 36 834 q 30 834 25 838 q 20 842 20 848 q 20 850 21 852 l 49 972 q 52 983 66 983 q 75 983 82 978 q 89 973 89 967 q 89 966 89 964 z"},"=":{"x_min":0,"x_max":335,"ha":335,"o":"m 262 485 q 271 484 276 478 q 281 472 282 468 q 283 463 283 461 q 283 457 280 453 q 278 449 272 449 q 270 449 269 449 q 231 451 181 453 q 131 455 74 455 q 64 455 57 460 q 50 466 48 471 q 47 476 47 478 q 47 482 50 486 q 53 491 65 491 q 183 491 262 485 z m 254 399 q 263 398 268 392 q 273 386 274 382 q 275 377 275 375 q 275 371 272 367 q 270 363 264 363 q 263 363 262 363 q 224 365 174 366 q 124 368 67 369 q 57 369 50 374 q 42 380 40 384 q 39 389 39 391 q 39 395 42 400 q 46 404 58 404 q 115 404 164 402 q 214 401 254 399 z"},"a":{"x_min":0,"x_max":526,"ha":526,"o":"m 526 264 q 526 266 530 267 q 534 268 539 268 q 545 268 550 267 q 555 266 555 265 q 555 264 555 264 q 548 244 538 216 q 527 189 513 160 q 499 130 482 102 q 464 73 443 50 q 422 28 398 14 q 374 0 348 0 q 318 0 298 14 q 279 27 268 50 q 257 73 254 101 q 250 129 250 156 q 250 162 250 169 q 236 136 218 105 q 200 74 180 51 q 160 28 138 14 q 117 0 96 0 q 47 0 19 31 q -9 62 -14 96 q -20 129 -20 151 q -20 180 -12 222 q -4 265 24 312 q 51 358 94 389 q 137 420 194 420 q 223 420 242 409 q 261 398 272 379 q 273 384 274 388 q 274 393 275 398 q 277 411 296 418 q 314 424 334 424 q 351 424 363 419 q 375 414 375 406 q 375 404 374 402 q 369 381 362 346 q 355 310 348 269 q 342 228 338 190 q 335 152 335 124 q 335 117 336 96 q 336 76 343 54 q 350 33 366 33 q 390 33 416 62 q 442 92 464 131 q 487 170 504 208 q 520 246 526 264 z m 110 35 q 127 35 144 50 q 162 66 178 90 q 195 115 210 146 q 225 177 236 208 q 247 238 254 266 q 260 293 260 311 q 260 325 258 340 q 255 354 249 366 q 243 377 233 384 q 223 391 206 391 q 177 391 152 364 q 128 338 110 298 q 92 259 82 213 q 71 167 70 146 q 70 124 70 120 q 70 85 79 60 q 88 35 110 35 z"},"L":{"x_min":0,"x_max":889,"ha":889,"o":"m 133 -148 q 99 -148 74 -140 q 48 -133 32 -120 q 16 -108 8 -92 q 0 -75 0 -58 q 0 -39 10 -20 q 20 -1 40 14 q 59 29 88 38 q 117 47 156 47 q 202 47 248 36 q 294 24 342 7 q 381 63 408 134 q 436 205 455 282 q 474 359 486 436 q 498 513 506 580 q 449 568 383 568 q 281 568 210 595 q 140 622 98 666 q 56 711 44 758 q 31 804 31 841 q 31 862 37 902 q 43 943 75 1000 q 107 1056 159 1100 q 211 1145 282 1172 q 352 1198 438 1198 q 510 1197 570 1180 q 630 1164 673 1132 q 701 1160 732 1179 q 762 1198 804 1198 q 831 1198 854 1186 q 877 1175 894 1154 q 911 1133 921 1104 q 931 1074 931 1037 q 931 985 910 924 q 890 863 849 804 q 808 745 747 694 q 686 643 605 610 q 595 553 576 474 q 557 396 528 312 q 499 227 460 144 q 422 61 372 -4 q 423 -24 474 -46 q 525 -69 576 -88 q 626 -107 676 -120 q 727 -132 776 -132 q 811 -132 846 -124 q 880 -117 914 -99 q 915 -99 916 -99 q 918 -99 921 -100 q 924 -102 927 -106 q 930 -109 930 -111 q 931 -113 931 -113 q 931 -116 928 -118 q 905 -132 878 -146 q 851 -159 821 -170 q 791 -181 758 -188 q 725 -195 689 -195 q 636 -195 585 -184 q 534 -173 486 -155 q 439 -137 395 -115 q 351 -93 311 -72 q 272 -107 228 -128 q 184 -148 133 -148 z m 510 604 q 518 661 528 731 q 539 801 556 871 q 573 941 598 1006 q 623 1070 659 1116 q 623 1145 573 1160 q 523 1174 464 1174 q 394 1174 334 1148 q 273 1123 226 1082 q 180 1041 148 989 q 117 937 108 894 q 98 851 98 821 q 98 798 104 761 q 111 724 145 684 q 179 643 240 618 q 300 593 391 593 q 452 593 510 604 z m 609 635 q 684 667 740 716 q 795 766 832 822 q 868 878 886 935 q 904 992 905 1038 q 905 1040 905 1042 q 905 1103 878 1136 q 850 1168 808 1168 q 776 1168 750 1147 q 723 1126 708 1099 q 729 1073 738 1042 q 748 1012 748 980 q 748 973 748 967 q 748 961 742 960 q 737 960 736 960 q 727 960 727 967 q 727 972 727 977 q 727 1034 697 1077 q 677 1033 663 974 q 649 914 639 852 q 629 791 622 734 q 615 676 609 635 z m 285 -57 q 232 -29 188 -10 q 143 9 108 9 q 71 9 50 -12 q 28 -33 28 -57 q 28 -80 50 -99 q 73 -118 124 -118 q 172 -118 212 -102 q 252 -86 285 -57 z"},"3":{"x_min":0,"x_max":551,"ha":551,"o":"m 310 512 q 368 505 410 480 q 452 454 478 416 q 503 378 512 339 q 521 300 521 267 q 521 253 518 222 q 515 192 496 148 q 477 103 444 68 q 411 34 366 13 q 320 -8 261 -8 q 211 -8 168 8 q 126 24 96 53 q 65 82 48 122 q 30 162 30 211 q 30 226 45 226 q 60 226 60 211 q 60 174 73 139 q 86 104 110 77 q 133 50 166 34 q 199 17 238 17 q 280 17 314 36 q 348 55 373 87 q 398 119 413 160 q 428 200 430 230 q 433 259 433 275 q 433 302 428 336 q 422 371 403 406 q 384 441 352 465 q 321 489 276 496 q 259 498 259 508 q 259 517 275 521 q 324 533 356 564 q 388 595 402 634 q 417 672 417 712 q 417 716 416 740 q 415 764 398 800 q 381 837 349 860 q 317 884 271 884 q 233 884 201 868 q 169 852 146 825 q 122 798 109 763 q 96 728 96 690 q 96 675 81 675 q 66 675 66 690 q 66 738 83 778 q 100 818 130 847 q 160 876 202 892 q 244 909 295 909 q 362 909 406 882 q 451 856 474 816 q 497 775 498 749 q 499 723 499 719 q 499 674 479 632 q 459 589 416 556 q 374 523 310 513 z"},";":{"x_min":0,"x_max":306,"ha":306,"o":"m 154 550 q 174 550 188 536 q 202 522 202 502 q 202 482 188 468 q 174 454 154 454 q 134 454 120 468 q 106 482 106 502 q 106 522 120 536 q 134 550 154 550 z m 127 223 q 133 225 139 225 q 152 225 166 216 q 179 208 184 188 q 185 181 185 173 q 185 164 182 150 q 180 136 173 118 q 166 99 158 84 q 149 68 142 59 q 136 52 130 52 q 123 52 120 57 q 118 62 118 65 q 118 69 121 73 q 122 75 126 83 q 129 91 133 100 q 137 110 141 118 q 145 127 146 130 q 142 129 137 129 q 124 129 110 138 q 96 146 91 166 q 89 172 89 178 q 89 190 98 204 q 108 218 127 223 z"},"J":{"x_min":0,"x_max":1226,"ha":1226,"o":"m 1185 1181 q 1157 1133 1139 1068 q 1121 1002 1107 922 q 1164 903 1200 858 q 1236 814 1236 736 q 1236 688 1222 646 q 1207 605 1182 570 q 1156 536 1120 508 q 1085 481 1043 461 q 1021 319 986 184 q 950 50 887 -60 q 843 -136 786 -191 q 730 -246 666 -282 q 603 -317 535 -334 q 467 -351 401 -351 q 322 -351 250 -328 q 177 -304 122 -258 q 66 -213 33 -146 q 0 -78 0 10 q 0 73 19 126 q 38 178 72 216 q 107 254 154 276 q 202 297 258 297 q 323 297 372 274 q 420 252 453 216 q 486 179 503 134 q 520 89 520 44 q 520 -11 496 -56 q 472 -102 421 -122 q 420 -122 419 -122 q 413 -122 410 -116 q 407 -110 407 -107 q 407 -104 409 -101 q 438 -88 452 -58 q 465 -27 465 11 q 465 51 450 94 q 435 137 406 173 q 377 209 334 232 q 291 256 235 256 q 190 256 152 238 q 113 220 85 188 q 57 156 41 112 q 25 68 25 16 q 25 -65 56 -128 q 87 -190 138 -232 q 188 -274 254 -296 q 319 -318 388 -318 q 481 -318 554 -287 q 627 -256 683 -202 q 739 -147 781 -74 q 823 -2 854 81 q 885 164 907 252 q 929 341 946 426 q 909 416 872 412 q 834 407 796 407 q 725 407 658 424 q 592 442 540 478 q 489 514 458 570 q 427 625 427 700 q 427 754 444 803 q 460 852 488 894 q 517 937 556 972 q 596 1008 642 1035 q 688 1062 739 1082 q 790 1101 842 1116 q 895 1131 948 1144 q 1001 1158 1052 1173 q 1085 1183 1107 1193 q 1129 1203 1148 1214 q 1166 1226 1184 1240 q 1202 1254 1227 1272 q 1231 1275 1235 1275 q 1237 1275 1240 1274 q 1244 1273 1248 1269 q 1251 1265 1251 1259 q 1251 1253 1245 1248 q 1227 1234 1212 1217 q 1196 1200 1185 1181 z m 951 449 q 965 521 976 586 q 988 651 1000 707 q 1010 752 1022 804 q 1033 856 1047 913 q 1027 916 1014 916 q 1001 917 997 917 q 978 917 961 914 q 959 914 957 914 q 952 914 948 916 q 945 919 945 923 q 945 927 948 931 q 952 935 959 935 q 983 937 1006 937 q 1029 937 1053 934 q 1072 1003 1096 1068 q 1120 1134 1152 1186 q 1086 1160 1013 1142 q 940 1123 870 1101 q 794 1077 730 1042 q 665 1006 618 955 q 572 904 546 836 q 519 768 519 681 q 519 615 543 568 q 567 520 608 490 q 648 459 701 444 q 754 429 812 429 q 882 429 951 449 z m 1047 488 q 1119 528 1166 591 q 1213 654 1213 738 q 1213 805 1182 844 q 1152 884 1103 901 q 1088 807 1076 702 q 1064 597 1047 488 z"},"V":{"x_min":0,"x_max":1158,"ha":1158,"o":"m 789 1184 q 801 1196 809 1196 q 815 1196 815 1189 q 815 1189 814 1184 q 814 1179 801 1165 q 752 1116 734 1050 q 716 983 716 906 q 716 902 716 859 q 717 816 732 725 q 746 634 764 541 q 781 448 796 356 q 812 265 814 218 q 815 170 815 159 q 815 88 800 22 q 785 -45 740 -98 q 794 -70 835 -19 q 876 32 906 93 q 936 154 957 218 q 978 283 993 337 q 1010 397 1026 458 q 1041 519 1057 582 q 1078 663 1102 743 q 1125 823 1154 896 q 1182 969 1218 1032 q 1253 1094 1297 1140 q 1341 1185 1396 1211 q 1450 1237 1517 1237 q 1568 1237 1614 1221 q 1660 1205 1696 1176 q 1701 1172 1701 1167 q 1701 1162 1698 1158 q 1695 1154 1692 1154 q 1690 1153 1689 1153 q 1685 1153 1681 1156 q 1648 1182 1606 1197 q 1565 1212 1518 1212 q 1426 1212 1358 1160 q 1290 1107 1240 1018 q 1189 930 1151 814 q 1113 699 1081 574 q 1065 512 1050 451 q 1034 390 1017 330 q 1005 287 990 238 q 974 190 954 142 q 935 93 910 48 q 884 2 852 -36 q 820 -75 781 -102 q 742 -130 693 -142 q 685 -144 679 -144 q 672 -144 669 -141 q 666 -138 666 -136 q 666 -130 676 -121 q 708 -94 716 -50 q 723 -6 723 36 q 723 59 720 107 q 716 155 702 240 q 687 325 672 417 q 656 509 645 598 q 634 688 634 768 q 634 778 635 828 q 636 878 654 959 q 673 1040 718 1105 q 693 1091 663 1084 q 633 1076 593 1076 q 560 1076 528 1080 q 497 1084 466 1090 q 436 1095 408 1099 q 380 1103 355 1103 q 289 1103 239 1071 q 189 1039 156 989 q 122 939 106 879 q 89 819 89 763 q 89 734 94 706 q 100 678 114 654 q 128 631 152 615 q 177 599 215 594 q 224 593 224 584 q 224 573 213 573 q 166 573 126 594 q 87 615 59 650 q 31 685 16 730 q 0 776 0 825 q 0 885 24 942 q 48 998 92 1041 q 136 1084 197 1110 q 258 1136 331 1136 q 367 1136 401 1130 q 435 1125 468 1118 q 502 1111 534 1106 q 567 1100 600 1100 q 662 1100 706 1122 q 751 1144 789 1184 z"},"\"":{"x_min":0,"x_max":170,"ha":170,"o":"m 49 851 q 49 846 44 842 q 40 839 35 839 q 22 839 20 854 l 20 859 q 20 859 20 860 q 20 861 20 862 l 20 863 q 20 864 20 864 l 20 865 q 20 866 20 866 l 20 888 q 20 888 20 889 l 20 890 q 20 891 20 891 l 20 893 q 20 894 20 895 l 20 896 q 20 896 20 897 l 20 921 q 20 922 20 922 l 20 923 q 20 924 20 925 l 20 927 q 20 928 20 928 l 20 929 q 20 930 20 930 l 20 953 q 20 953 20 954 l 20 955 q 20 955 20 956 l 20 958 q 20 958 20 959 l 20 960 q 20 960 20 960 l 20 972 q 20 980 26 983 q 32 986 40 986 q 48 986 54 983 q 60 980 60 975 q 60 974 60 973 z m 127 851 q 127 846 122 842 q 118 839 113 839 q 100 839 98 854 l 98 856 q 98 857 98 858 l 98 859 q 98 859 98 860 q 98 861 98 861 l 98 884 q 98 885 98 887 l 98 888 q 98 888 98 889 l 98 890 q 98 890 98 891 l 98 917 q 98 919 98 920 l 98 921 q 98 922 98 922 l 98 923 q 98 924 98 924 l 98 949 q 98 951 98 952 l 98 953 q 98 953 98 954 l 98 955 q 98 955 98 956 l 98 972 q 98 980 104 983 q 110 986 118 986 q 126 986 132 983 q 138 980 138 975 q 138 974 138 973 z"},"7":{"x_min":0,"x_max":543,"ha":543,"o":"m 138 28 l 138 39 l 137 60 q 137 111 141 174 q 145 237 154 305 q 162 373 176 443 q 189 513 208 578 q 227 643 252 699 q 276 755 306 796 q 284 802 260 810 q 237 819 213 826 q 189 833 165 838 q 141 843 117 843 q 91 843 67 836 q 43 829 20 817 q 14 814 10 814 q 9 814 6 814 q 3 815 2 818 q 0 821 0 824 q 0 826 1 829 q 2 832 6 836 q 22 849 43 858 q 64 868 86 874 q 108 880 130 883 q 151 886 169 886 q 214 886 258 876 q 302 865 344 848 q 376 883 405 898 q 434 914 465 914 q 499 914 521 896 q 543 879 543 852 q 543 836 533 822 q 523 807 506 796 q 489 786 466 780 q 444 773 420 773 q 395 773 372 778 q 350 784 327 790 q 306 760 290 710 q 273 659 261 598 q 249 536 240 468 q 232 401 227 338 q 222 274 220 218 q 218 163 218 125 l 218 112 q 218 111 218 110 l 218 106 q 218 105 218 104 l 218 103 q 218 102 218 101 l 218 79 q 218 78 218 77 q 218 52 220 28 q 220 27 220 26 q 220 13 208 6 q 196 0 180 0 q 164 0 151 7 q 138 14 138 28 z m 363 839 q 384 830 412 818 q 440 807 464 807 q 488 807 506 820 q 523 832 523 849 q 523 869 508 880 q 493 892 466 892 q 414 892 363 839 z"},"S":{"x_min":0,"x_max":988,"ha":988,"o":"m 406 45 q 404 44 403 44 q 399 44 396 50 q 392 55 392 58 q 392 61 395 63 q 478 111 524 191 q 570 271 570 369 q 570 421 556 463 q 541 505 515 535 q 489 565 452 581 q 414 597 368 597 q 299 597 241 568 q 183 539 142 490 q 101 442 78 380 q 55 318 55 252 q 55 186 78 125 q 102 64 144 17 q 187 -30 248 -58 q 309 -86 384 -86 q 458 -86 514 -64 q 570 -42 612 -4 q 654 35 682 88 q 711 140 730 200 q 749 259 760 324 q 770 388 776 452 q 782 515 785 574 q 788 634 791 684 q 739 664 683 653 q 627 642 567 642 q 481 642 418 666 q 355 691 316 731 q 276 771 261 816 q 246 862 246 903 q 246 915 249 948 q 252 980 278 1032 q 305 1083 352 1123 q 400 1163 468 1188 q 535 1212 623 1212 q 705 1212 771 1194 q 837 1177 882 1142 q 903 1169 932 1184 q 961 1199 1000 1199 q 1048 1199 1075 1166 q 1102 1133 1102 1074 q 1102 1020 1086 970 q 1069 920 1040 875 q 1010 830 968 792 q 927 753 876 724 q 873 645 868 552 q 864 460 848 366 q 833 273 804 186 q 775 99 724 32 q 672 -34 594 -74 q 515 -115 403 -115 q 318 -115 250 -85 q 181 -55 132 -5 q 83 45 56 110 q 30 175 30 246 q 30 326 58 396 q 86 465 136 517 q 186 569 254 599 q 322 629 403 629 q 460 629 506 612 q 551 594 584 561 q 616 528 634 482 q 651 435 651 378 q 651 170 406 45 z m 793 704 q 797 769 802 830 q 806 891 814 946 q 822 1000 835 1046 q 848 1091 869 1124 q 831 1156 775 1172 q 719 1188 649 1188 q 578 1188 520 1166 q 463 1143 420 1106 q 378 1070 352 1023 q 325 976 320 942 q 314 907 314 887 q 314 859 322 822 q 331 785 364 748 q 396 712 450 690 q 505 667 584 667 q 639 667 692 676 q 745 686 793 704 z m 876 745 q 921 772 958 806 q 995 841 1022 882 q 1048 923 1062 970 q 1077 1016 1077 1066 q 1077 1117 1057 1146 q 1037 1175 1002 1175 q 971 1175 951 1157 q 931 1139 917 1106 q 936 1080 944 1052 q 952 1024 952 994 q 952 988 952 981 q 952 975 946 974 q 941 974 940 974 q 931 974 931 981 q 931 987 931 992 q 931 1040 908 1079 q 891 1019 886 933 q 880 847 876 745 z"},"}":{"x_min":0,"x_max":321,"ha":321,"o":"m 25 -82 q 18 -80 16 -76 q 14 -72 14 -69 q 14 -67 14 -64 q 15 -61 19 -58 q 23 -54 29 -54 q 44 -54 54 -36 q 65 -18 73 9 q 81 36 86 69 q 91 102 94 134 q 98 165 100 192 q 101 218 102 231 q 105 281 109 337 q 113 393 125 444 q 137 495 160 534 q 182 574 221 589 q 188 619 175 665 q 162 711 161 742 q 160 773 160 783 q 160 826 166 875 q 172 924 178 972 q 180 986 182 1012 q 185 1038 188 1070 q 190 1101 190 1120 q 191 1139 191 1143 q 191 1172 188 1199 q 184 1226 176 1247 q 169 1268 155 1273 q 149 1275 146 1280 q 144 1284 144 1288 q 144 1289 144 1292 q 145 1295 149 1298 q 153 1302 158 1302 q 160 1302 161 1302 q 196 1298 218 1280 q 240 1262 252 1235 q 265 1208 270 1175 q 274 1142 274 1109 q 274 1105 274 1084 q 273 1064 269 1026 q 265 987 260 952 q 256 918 252 880 q 247 843 244 808 q 241 772 241 739 q 241 733 242 711 q 242 689 248 654 q 251 636 256 624 q 262 611 268 602 q 273 594 277 588 q 281 583 281 579 q 281 573 275 570 q 269 566 261 559 q 253 552 243 539 q 233 526 224 501 q 213 470 206 434 q 200 399 196 362 q 191 326 189 290 q 187 254 185 221 q 182 171 177 116 q 172 62 158 17 q 145 -28 121 -57 q 97 -86 57 -86 q 40 -86 25 -82 z"},"Z":{"x_min":0,"x_max":839,"ha":839,"o":"m 714 75 q 714 68 714 60 q 714 8 701 -53 q 688 -114 660 -176 q 631 -238 590 -294 q 548 -351 494 -394 q 441 -437 376 -462 q 310 -487 234 -487 q 187 -487 144 -474 q 102 -461 70 -434 q 38 -408 19 -368 q 0 -328 0 -275 q 0 -268 4 -264 q 7 -260 12 -260 q 23 -260 23 -273 q 23 -319 38 -354 q 52 -389 77 -413 q 102 -437 136 -449 q 169 -461 207 -461 q 278 -461 336 -433 q 395 -405 441 -358 q 487 -311 522 -251 q 556 -191 578 -128 q 600 -64 610 -4 q 620 56 620 103 q 620 108 620 112 q 618 207 578 260 q 537 313 462 321 q 423 304 384 294 q 345 284 308 279 q 304 279 302 282 q 299 284 299 288 q 299 292 302 295 q 304 298 308 299 q 400 313 472 350 q 545 388 598 440 q 651 492 684 554 q 718 616 731 670 q 744 725 744 771 q 744 785 741 821 q 738 857 714 902 q 691 947 650 974 q 608 1001 548 1001 q 498 1001 454 982 q 409 964 372 932 q 335 901 306 860 q 276 819 256 775 q 236 731 226 688 q 216 646 216 611 q 216 607 216 604 q 218 539 248 510 q 277 480 318 480 q 348 480 379 495 q 410 510 435 538 q 460 565 475 603 q 490 641 490 685 q 490 688 490 691 q 488 771 442 786 q 436 788 436 793 q 436 794 438 798 q 439 802 444 802 q 445 802 446 802 q 489 797 514 758 q 539 718 541 656 q 541 653 541 650 q 541 601 524 562 q 508 522 480 494 q 452 466 417 452 q 382 438 346 438 q 316 438 288 448 q 261 458 240 478 q 219 499 206 530 q 192 562 191 605 q 191 608 191 612 q 191 653 202 700 q 214 746 238 794 q 262 841 296 884 q 331 927 376 960 q 420 993 474 1012 q 527 1032 588 1032 q 674 1032 730 995 q 785 958 807 905 q 829 852 829 796 q 829 780 824 734 q 820 688 782 611 q 744 534 674 462 q 603 391 501 339 q 609 307 660 243 q 712 179 714 75 z"},"x":{"x_min":0,"x_max":364,"ha":364,"o":"m 364 264 q 364 266 368 267 q 372 268 377 268 q 383 268 388 267 q 393 266 393 265 q 393 264 393 264 q 386 243 376 215 q 367 187 354 158 q 341 128 324 100 q 308 72 288 50 q 268 27 244 14 q 220 0 193 0 q 113 0 52 127 q 25 98 2 66 q -20 34 -35 -2 q -39 -13 -49 -13 q -56 -13 -60 -8 q -65 -4 -65 0 q -65 1 -64 3 q -47 47 -20 84 q 6 122 38 159 q 25 189 14 220 q 3 252 -6 282 q -14 311 -21 336 q -28 360 -33 377 q -34 380 -34 382 q -34 389 -28 397 q -21 405 -9 414 q 3 422 17 428 q 31 433 42 433 q 56 433 59 423 q 66 392 78 342 q 90 291 106 237 q 141 279 173 324 q 205 368 226 422 q 230 431 245 431 q 260 431 274 424 q 288 418 288 412 q 288 411 288 410 q 263 347 216 296 q 170 245 119 196 q 172 36 216 36 q 231 36 253 55 q 275 74 295 104 q 305 120 315 140 q 325 160 334 182 q 343 203 350 224 q 358 246 364 264 z"},")":{"x_min":0,"x_max":396,"ha":396,"o":"m 36 15 q 64 41 88 88 q 113 136 134 196 q 154 255 171 321 q 188 387 201 450 q 214 513 223 567 q 232 621 237 657 q 242 693 248 747 q 254 801 259 864 q 264 926 265 968 q 266 1009 266 1027 q 266 1073 262 1124 q 259 1176 248 1224 q 236 1272 215 1298 q 204 1312 204 1318 q 204 1325 212 1325 q 220 1325 234 1317 q 270 1291 292 1245 q 315 1199 328 1142 q 341 1084 345 1024 q 349 965 349 912 q 349 900 348 862 q 348 824 343 764 q 338 704 331 657 q 325 611 313 551 q 301 491 284 426 q 266 362 243 296 q 220 231 191 173 q 162 115 127 69 q 92 23 50 -4 q 36 -13 26 -13 q 20 -13 20 -8 q 20 -8 20 -4 q 21 -1 36 15 z"},"_":{"x_min":0,"x_max":321,"ha":321,"o":"m 259 27 q 270 27 276 21 q 283 15 284 10 q 286 6 286 4 q 286 0 283 -4 q 280 -9 269 -9 q 221 -7 180 -6 q 138 -6 117 -6 q 73 -6 25 -7 q 13 -7 4 -2 q -6 4 -8 8 q -10 13 -10 15 q -10 19 -6 24 q -2 28 13 28 q 71 30 121 30 q 134 30 171 30 q 208 29 259 27 z"},"v":{"x_min":0,"x_max":387,"ha":387,"o":"m 282 417 q 282 427 294 432 q 307 436 321 436 q 331 436 338 434 q 345 432 345 427 q 344 404 334 364 q 325 323 308 276 q 292 228 270 179 q 247 130 220 90 q 193 50 163 25 q 133 0 102 0 q 56 0 30 52 q 5 103 1 191 q 0 210 0 230 q 0 239 0 258 q 1 278 3 305 q 5 332 8 356 q 11 379 13 395 q 15 409 36 416 q 56 423 76 423 q 92 423 102 419 q 112 415 112 406 q 112 405 112 403 q 108 384 104 353 q 100 322 96 286 q 93 249 92 218 q 91 188 91 168 q 91 154 91 141 q 92 127 94 110 q 96 93 100 78 q 104 64 111 54 q 118 44 128 44 q 149 44 170 68 q 191 92 211 132 q 231 172 246 220 q 261 268 271 320 q 281 371 282 417 z"},"O":{"x_min":0,"x_max":917,"ha":917,"o":"m 545 -30 q 509 -50 470 -61 q 432 -72 392 -72 q 316 -72 259 -39 q 202 -6 164 51 q 126 108 107 185 q 88 262 88 350 q 88 492 123 629 q 54 692 27 776 q 0 861 0 951 q 0 983 3 1017 q 3 1024 14 1024 q 19 1024 23 1022 q 27 1020 27 1015 q 25 985 25 957 q 25 873 48 795 q 71 717 131 657 q 166 783 224 894 q 283 1004 356 1086 q 430 1169 514 1216 q 598 1264 684 1264 q 741 1264 784 1242 q 827 1221 856 1184 q 884 1148 898 1100 q 911 1051 911 996 q 911 922 886 844 q 860 767 810 701 q 824 674 831 640 q 838 606 838 564 q 838 474 819 389 q 800 304 766 230 q 733 156 687 96 q 641 36 586 -4 q 650 -50 746 -53 q 751 -53 754 -56 q 756 -59 756 -63 q 756 -63 756 -66 q 755 -68 752 -72 q 749 -75 744 -75 q 684 -74 634 -62 q 585 -51 545 -30 z m 201 603 q 280 558 395 549 q 415 600 442 644 q 470 688 504 720 q 539 753 580 772 q 620 790 665 790 q 750 790 796 724 q 841 786 864 858 q 886 929 886 996 q 886 1046 874 1090 q 862 1134 837 1167 q 812 1200 774 1220 q 737 1239 687 1239 q 606 1239 530 1190 q 453 1140 388 1054 q 324 967 276 851 q 227 735 201 603 z m 477 548 q 578 554 653 597 q 728 640 780 704 q 762 733 736 749 q 710 765 677 765 q 644 765 614 748 q 584 732 558 703 q 533 674 512 634 q 492 595 477 548 z m 567 11 q 620 49 665 108 q 710 167 743 240 q 776 312 794 395 q 813 478 813 565 q 813 632 793 680 q 737 614 656 570 q 575 527 469 522 q 451 456 448 408 q 444 360 444 338 q 444 288 454 230 q 463 172 491 112 q 519 52 567 11 z m 522 -17 q 456 24 418 87 q 379 150 366 212 q 354 275 354 328 q 354 352 358 403 q 362 454 386 525 q 278 534 196 577 q 186 521 182 464 q 177 408 177 350 q 177 267 189 194 q 201 122 228 68 q 255 15 298 -16 q 341 -47 404 -47 q 465 -47 522 -17 z"},"C":{"x_min":0,"x_max":959,"ha":959,"o":"m 411 1238 q 465 1238 514 1228 q 562 1219 601 1200 q 673 1240 746 1240 q 820 1240 862 1196 q 904 1152 904 1075 q 904 1031 888 982 q 873 932 842 884 q 811 836 765 792 q 719 748 658 715 q 598 682 522 662 q 446 642 356 642 l 354 642 q 354 642 354 642 l 351 642 q 351 642 351 642 l 350 642 q 350 642 350 642 l 349 642 q 349 642 348 642 q 347 642 347 642 l 338 642 q 329 642 321 643 q 297 561 284 480 q 270 398 269 354 q 268 311 268 300 q 268 238 278 178 q 288 118 314 70 q 339 22 381 -6 q 423 -34 482 -34 q 508 -34 539 -28 q 523 10 523 58 q 523 105 536 154 q 549 204 574 251 q 598 298 632 334 q 665 371 706 394 q 746 416 791 416 q 829 416 848 394 q 868 371 868 329 q 868 278 846 222 q 823 167 785 118 q 747 68 697 28 q 647 -12 593 -32 q 598 -71 624 -92 q 650 -114 689 -118 q 692 -119 692 -123 q 692 -125 691 -130 q 690 -136 687 -136 q 668 -136 648 -130 q 629 -123 610 -112 q 592 -100 577 -86 q 562 -71 552 -55 q 495 -70 444 -70 q 371 -70 319 -40 q 267 -11 234 40 q 202 92 188 160 q 174 227 174 301 q 174 306 174 349 q 175 392 190 480 q 206 568 233 655 q 162 671 113 705 q 64 739 36 783 q 9 827 4 861 q 0 895 0 911 q 0 946 12 988 q 23 1031 56 1078 q 88 1124 138 1160 q 189 1196 258 1217 q 326 1238 411 1238 z m 241 682 q 268 762 304 838 q 340 914 384 980 q 427 1046 476 1100 q 526 1153 580 1187 q 519 1214 437 1214 q 346 1214 274 1180 q 201 1147 153 1095 q 105 1043 86 990 q 67 936 67 894 q 67 876 73 838 q 79 800 120 752 q 162 704 241 682 z m 328 668 q 337 667 346 667 q 346 667 347 667 q 348 667 348 667 l 350 667 q 350 667 350 667 l 352 667 q 353 667 354 667 l 364 667 q 452 667 524 686 q 596 705 653 737 q 710 769 752 811 q 794 853 822 898 q 850 943 864 988 q 877 1034 878 1074 q 878 1076 878 1078 q 878 1138 848 1174 q 818 1209 766 1209 q 706 1209 646 1172 q 684 1143 702 1104 q 721 1066 721 1021 q 721 1014 721 1007 q 721 1001 716 1000 q 710 1000 709 1000 q 700 1000 700 1007 q 700 1012 700 1016 q 700 1061 682 1098 q 663 1134 627 1160 q 580 1127 536 1076 q 493 1024 454 960 q 416 895 384 820 q 352 746 328 668 z m 593 -9 q 638 5 683 42 q 728 79 763 128 q 798 176 820 230 q 842 284 842 332 q 842 385 803 385 q 764 385 718 334 q 691 304 668 263 q 644 222 628 176 q 611 130 602 85 q 593 40 593 -1 q 593 -5 593 -9 z"},"W":{"x_min":0,"x_max":1545,"ha":1545,"o":"m 1353 1247 q 1361 1247 1364 1243 q 1368 1239 1368 1236 q 1369 1234 1369 1233 q 1369 1230 1366 1226 q 1362 1222 1354 1222 q 1285 1222 1240 1198 q 1194 1173 1167 1131 q 1140 1089 1129 1034 q 1118 979 1118 918 q 1118 836 1132 744 q 1146 653 1164 559 q 1182 465 1198 372 q 1214 279 1216 230 q 1217 181 1217 168 q 1217 99 1202 32 q 1188 -35 1142 -88 q 1196 -60 1237 -9 q 1278 42 1308 103 q 1338 164 1359 228 q 1380 293 1395 347 q 1412 407 1428 468 q 1443 529 1459 592 q 1480 673 1504 753 q 1527 833 1556 906 q 1584 979 1620 1042 q 1655 1104 1699 1150 q 1743 1195 1798 1221 q 1852 1247 1919 1247 q 1970 1247 2016 1231 q 2062 1215 2098 1186 q 2103 1182 2103 1177 q 2103 1172 2100 1168 q 2097 1164 2094 1164 q 2092 1163 2091 1163 q 2087 1163 2083 1166 q 2050 1192 2008 1207 q 1967 1222 1920 1222 q 1828 1222 1760 1170 q 1692 1117 1642 1028 q 1591 940 1553 824 q 1515 709 1483 584 q 1467 522 1452 461 q 1436 400 1419 340 q 1407 297 1392 248 q 1376 200 1356 151 q 1337 102 1312 56 q 1287 10 1255 -28 q 1223 -66 1184 -94 q 1144 -121 1095 -132 q 1088 -134 1082 -134 q 1075 -134 1072 -131 q 1069 -128 1069 -125 q 1069 -120 1078 -111 q 1111 -84 1118 -40 q 1126 3 1126 43 q 1126 68 1122 118 q 1118 168 1103 254 q 1088 340 1072 434 q 1057 527 1046 616 q 1036 704 1036 781 q 1036 795 1036 808 q 1018 715 1005 613 q 992 511 978 412 q 963 313 943 222 q 923 130 891 57 q 859 -16 812 -66 q 764 -116 693 -132 q 686 -134 681 -134 q 674 -134 670 -131 q 667 -128 667 -125 q 667 -119 676 -111 q 708 -84 716 -40 q 724 4 724 46 q 724 69 720 116 q 717 164 702 250 q 687 335 672 427 q 656 519 645 608 q 634 697 634 777 q 634 788 635 838 q 636 888 654 969 q 673 1050 718 1115 q 693 1101 663 1094 q 633 1086 593 1086 q 560 1086 528 1090 q 497 1094 466 1100 q 436 1105 408 1109 q 380 1113 355 1113 q 289 1113 239 1081 q 189 1049 156 999 q 122 949 106 889 q 89 829 89 773 q 89 744 94 716 q 100 688 114 664 q 128 641 152 625 q 177 609 215 604 q 224 603 224 594 q 224 583 213 583 q 166 583 126 604 q 87 625 59 660 q 31 695 16 740 q 0 786 0 835 q 0 895 24 952 q 48 1008 92 1051 q 136 1094 197 1120 q 258 1146 331 1146 q 367 1146 401 1140 q 435 1135 468 1128 q 502 1121 534 1116 q 567 1110 600 1110 q 662 1110 706 1132 q 751 1154 789 1194 q 800 1205 807 1205 q 814 1205 814 1198 q 814 1197 814 1192 q 813 1187 801 1175 q 752 1126 734 1060 q 716 993 716 916 q 716 912 716 869 q 717 826 732 735 q 746 644 764 552 q 781 459 796 367 q 812 275 814 228 q 815 180 815 169 q 815 99 800 32 q 786 -34 741 -87 q 794 -58 830 -3 q 867 52 892 125 q 916 198 932 285 q 948 372 961 465 q 974 558 986 652 q 999 746 1016 832 q 1034 919 1060 995 q 1086 1071 1125 1127 q 1164 1183 1220 1215 q 1275 1247 1353 1247 z"},"A":{"x_min":0,"x_max":1227,"ha":1227,"o":"m 238 -18 q 175 -18 132 7 q 89 32 64 74 q 40 115 35 154 q 30 193 30 217 q 30 248 37 293 q 44 338 68 396 q 92 453 130 501 q 157 535 190 561 q 222 587 258 604 q 293 622 329 631 q 365 640 399 640 q 442 640 478 626 q 514 611 537 582 q 560 553 564 524 q 569 496 569 481 q 569 447 558 405 q 570 406 582 406 q 595 407 609 409 q 627 451 645 495 q 663 539 680 583 q 748 753 801 883 q 854 1013 904 1102 q 955 1191 1008 1236 q 1060 1282 1126 1282 q 1196 1282 1212 1244 q 1227 1207 1227 1170 q 1227 1131 1215 1077 q 1204 1025 1189 974 q 1174 922 1160 871 q 1134 776 1105 666 q 1076 557 1053 444 q 1084 438 1110 426 q 1135 415 1154 395 q 1157 391 1157 388 q 1157 386 1154 382 q 1152 378 1147 378 q 1143 378 1140 381 q 1108 414 1049 425 q 1031 336 1020 251 q 1009 166 1009 90 q 1009 69 1012 40 q 1014 10 1021 -20 q 1028 -49 1042 -74 q 1055 -98 1077 -110 q 1082 -113 1082 -116 q 1083 -120 1083 -120 q 1083 -125 1078 -128 q 1055 -141 1025 -141 q 988 -141 966 -114 q 943 -86 932 -48 q 920 -9 916 32 q 913 73 913 100 q 913 179 924 262 q 935 345 952 431 q 871 429 792 416 q 712 402 631 392 q 592 305 550 230 q 507 156 459 100 q 411 45 356 14 q 302 -18 238 -18 z m 641 414 q 699 424 744 430 q 790 437 828 442 q 865 446 896 448 q 927 451 956 451 q 973 532 994 613 q 1016 694 1039 774 q 1062 854 1085 931 q 1108 1008 1127 1080 q 1131 1094 1137 1121 q 1143 1148 1143 1175 q 1143 1202 1132 1222 q 1122 1242 1093 1242 q 1062 1242 1032 1217 q 1001 1192 970 1148 q 939 1104 909 1044 q 879 984 848 914 q 817 844 786 768 q 756 692 725 615 q 704 563 684 512 q 663 462 641 414 z m 387 488 q 385 476 385 466 q 385 444 396 428 q 407 413 429 406 q 451 400 475 400 q 479 400 495 400 q 511 401 537 402 q 548 442 548 474 q 548 485 545 510 q 542 535 522 562 q 502 589 470 603 q 439 617 401 617 q 342 617 280 586 q 219 554 177 491 q 149 448 132 396 q 116 345 114 312 q 111 278 111 263 q 111 227 118 186 q 126 144 147 107 q 168 70 200 48 q 233 25 278 25 q 328 25 372 54 q 415 82 455 132 q 495 181 530 247 q 566 313 599 388 q 586 386 574 385 q 563 384 551 383 q 539 350 521 319 q 503 288 480 265 q 456 242 429 228 q 402 213 373 213 q 363 216 363 227 q 363 238 373 242 q 398 242 422 253 q 445 264 466 283 q 486 302 502 328 q 519 353 530 381 q 513 380 495 380 q 482 380 458 381 q 434 382 407 392 q 380 403 368 423 q 355 443 355 467 q 355 479 357 492 q 358 497 362 498 q 365 500 370 500 q 377 500 382 497 q 387 494 387 490 q 387 489 387 488 z"},"f":{"x_min":0,"x_max":289,"ha":289,"o":"m 289 264 q 292 268 304 268 q 317 268 318 264 q 308 236 286 209 q 265 182 237 160 q 209 139 177 123 q 145 107 113 99 q 127 78 140 49 q 154 20 164 -16 q 175 -51 181 -91 q 187 -131 187 -174 q 187 -248 166 -292 q 146 -336 102 -336 q 65 -336 42 -304 q 18 -271 6 -220 q -7 -169 -11 -112 q -15 -54 -15 -4 q -15 7 -14 44 q -14 80 -10 133 q -7 186 -4 217 q -2 242 4 284 q 9 327 17 380 q 25 432 37 490 q 49 549 64 607 q 80 665 100 718 q 119 770 142 810 q 166 850 194 874 q 222 898 254 898 q 287 898 306 873 q 325 848 325 803 q 325 769 314 726 q 303 684 285 637 q 267 590 244 542 q 221 494 196 450 q 171 405 146 367 q 122 329 102 302 q 99 275 96 254 q 94 232 92 212 q 89 191 88 170 q 86 148 84 121 q 113 125 144 138 q 175 151 203 170 q 231 190 254 214 q 277 238 289 264 z m 259 866 q 235 866 215 833 q 195 800 179 749 q 163 698 150 637 q 138 576 129 520 q 120 463 115 419 q 110 375 108 358 q 125 384 146 418 q 167 453 188 492 q 209 531 228 572 q 248 614 264 654 q 279 695 288 732 q 297 768 297 798 q 297 830 286 848 q 276 866 259 866 z m 82 93 q 77 28 74 -29 q 71 -86 71 -125 q 71 -148 72 -188 q 74 -227 84 -264 q 93 -301 114 -301 q 134 -301 146 -265 q 159 -229 159 -169 q 159 -124 152 -82 q 145 -41 134 -7 q 122 27 108 53 q 95 79 82 93 z"},"Q":{"x_min":0,"x_max":902,"ha":902,"o":"m 444 -99 q 395 -129 344 -145 q 292 -161 239 -161 q 205 -161 180 -154 q 154 -146 138 -134 q 122 -121 114 -104 q 106 -88 106 -71 q 106 -52 116 -33 q 126 -14 146 1 q 165 16 194 25 q 223 34 262 34 q 317 34 374 18 q 430 3 487 -20 q 544 36 592 112 q 640 188 674 278 q 708 368 727 468 q 746 568 746 671 q 746 787 722 872 q 698 956 656 1011 q 615 1066 560 1092 q 504 1118 441 1118 q 361 1118 294 1080 q 227 1042 176 980 q 125 918 90 839 q 56 760 42 684 q 27 607 27 540 q 27 527 28 482 q 30 436 55 374 q 80 312 127 274 q 174 236 246 236 q 294 236 332 258 q 371 279 399 314 q 427 350 443 396 q 459 442 462 473 q 464 504 464 519 q 464 551 456 590 q 449 629 426 666 q 404 702 367 725 q 330 748 278 750 q 273 750 270 753 q 268 756 268 760 q 268 760 268 762 q 269 765 272 768 q 275 772 280 772 q 356 772 408 748 q 461 723 493 683 q 525 643 535 600 q 545 557 545 521 q 545 504 542 469 q 538 434 516 383 q 494 332 458 292 q 421 252 372 228 q 322 203 262 203 q 179 203 124 244 q 68 285 38 352 q 8 419 4 473 q 0 527 0 550 q 0 614 15 692 q 30 770 68 856 q 107 942 165 1009 q 223 1076 300 1117 q 378 1158 472 1158 q 546 1158 612 1130 q 678 1101 728 1044 q 777 986 806 898 q 835 809 835 689 q 835 583 812 478 q 789 373 748 278 q 707 184 650 103 q 594 22 527 -37 l 530 -38 q 530 -38 531 -39 l 534 -40 q 536 -41 538 -42 l 541 -43 q 543 -44 545 -45 l 548 -46 q 548 -46 549 -46 l 552 -48 q 554 -48 556 -49 l 559 -50 q 561 -51 563 -52 l 566 -53 q 566 -54 567 -54 l 570 -55 q 572 -56 574 -57 l 577 -58 q 579 -59 581 -60 l 584 -61 q 584 -61 585 -62 l 588 -63 q 590 -64 592 -64 l 595 -66 q 597 -67 599 -67 l 602 -69 q 602 -69 603 -69 l 606 -70 q 608 -71 610 -72 l 613 -73 q 615 -74 617 -75 q 662 -94 706 -110 q 751 -125 796 -135 q 840 -145 883 -145 q 918 -145 952 -138 q 986 -130 1020 -112 q 1021 -112 1022 -112 q 1024 -112 1027 -114 q 1030 -115 1033 -118 q 1036 -122 1036 -124 q 1037 -126 1037 -126 q 1037 -129 1034 -131 q 1011 -145 984 -158 q 957 -172 927 -183 q 897 -194 864 -201 q 831 -208 795 -208 q 746 -208 700 -198 q 653 -189 609 -174 q 565 -158 524 -138 q 482 -119 444 -99 z m 236 -136 q 282 -136 325 -122 q 368 -107 410 -81 q 351 -49 302 -26 q 253 -4 214 -4 q 177 -4 156 -25 q 134 -46 134 -70 q 134 -82 140 -94 q 145 -105 158 -114 q 170 -124 190 -130 q 209 -136 236 -136 z"},"w":{"x_min":0,"x_max":642,"ha":642,"o":"m 537 417 q 537 427 550 432 q 562 436 575 436 q 585 436 592 434 q 599 432 599 427 q 599 404 589 364 q 579 323 562 276 q 546 228 524 179 q 501 130 474 90 q 448 50 418 25 q 388 0 357 0 q 323 0 302 26 q 282 51 272 86 q 261 121 258 158 q 255 195 255 218 q 232 158 212 116 q 192 75 172 49 q 153 23 132 12 q 112 0 87 0 q 58 0 40 23 q 23 46 14 82 q 4 119 2 155 q 0 191 0 219 q 0 236 1 266 q 2 296 6 334 q 10 371 13 393 q 14 400 20 405 q 26 410 35 414 q 44 417 54 419 q 65 421 75 421 q 91 421 101 417 q 111 413 111 404 q 111 403 111 401 q 109 391 104 360 q 100 330 96 290 q 92 251 90 216 q 88 181 88 157 q 88 143 89 118 q 90 93 96 70 q 103 46 118 46 q 133 46 150 66 q 166 85 182 116 q 197 148 212 186 q 227 225 238 264 q 250 302 258 336 q 267 370 270 392 q 271 399 277 404 q 283 409 292 412 q 301 416 312 418 q 322 420 332 420 q 348 420 358 416 q 369 412 369 403 q 369 402 369 400 q 365 381 360 350 q 356 319 352 282 q 349 246 348 217 q 346 188 346 170 q 346 152 347 134 q 348 122 350 106 q 351 91 355 77 q 359 63 366 54 q 373 44 384 44 q 398 44 420 67 q 447 96 468 140 q 489 184 504 233 q 519 282 528 331 q 536 380 537 417 z"},"-":{"x_min":0,"x_max":334,"ha":334,"o":"m 255 456 q 264 456 269 450 q 274 444 275 440 q 276 435 276 433 q 276 429 274 424 q 271 420 263 420 q 225 423 175 424 q 125 426 68 427 q 58 427 50 432 q 43 438 42 442 q 40 447 40 449 q 40 453 44 458 q 47 462 59 462 q 116 462 166 460 q 215 459 255 456 z"},"E":{"x_min":0,"x_max":949,"ha":949,"o":"m 539 -28 q 523 10 523 58 q 523 105 536 154 q 549 204 574 251 q 598 298 632 334 q 665 371 706 394 q 746 416 791 416 q 829 416 848 394 q 868 371 868 329 q 868 278 846 222 q 823 167 785 118 q 747 68 697 28 q 647 -12 593 -32 q 598 -71 624 -92 q 650 -114 689 -118 q 695 -119 695 -125 q 695 -126 694 -131 q 694 -136 687 -136 q 668 -136 648 -130 q 629 -123 610 -112 q 592 -100 577 -86 q 562 -71 552 -55 q 490 -77 428 -77 q 371 -77 321 -58 q 271 -39 233 -2 q 195 35 173 90 q 151 144 151 215 q 151 304 186 383 q 220 462 280 521 q 341 580 423 614 q 505 649 600 649 q 579 658 561 673 q 516 658 464 650 q 413 642 356 642 q 258 642 188 668 q 118 693 74 735 q 31 777 16 824 q 0 871 0 911 q 0 926 4 962 q 8 997 38 1050 q 68 1104 120 1146 q 172 1188 245 1213 q 318 1238 411 1238 q 471 1238 523 1226 q 575 1215 616 1192 q 645 1215 680 1228 q 714 1240 755 1240 q 785 1240 812 1230 q 840 1220 860 1200 q 880 1179 892 1148 q 904 1117 904 1075 q 904 1025 884 969 q 864 913 825 860 q 786 806 728 760 q 669 714 591 684 q 611 663 641 658 q 650 657 650 648 q 650 647 650 642 q 649 636 641 636 q 555 634 483 600 q 411 565 358 509 q 306 453 276 382 q 247 310 247 233 q 247 173 265 124 q 283 74 315 40 q 347 5 390 -14 q 434 -33 485 -33 q 499 -33 512 -32 q 525 -31 539 -28 z m 542 691 q 503 734 492 787 q 480 840 480 883 q 480 908 486 956 q 491 1003 520 1068 q 550 1134 599 1178 q 566 1196 525 1205 q 484 1214 437 1214 q 361 1214 298 1190 q 235 1167 188 1128 q 141 1090 112 1040 q 82 991 75 954 q 68 917 68 894 q 68 867 77 829 q 86 791 121 752 q 156 714 216 690 q 276 667 364 667 q 414 667 458 674 q 502 680 542 691 z m 878 1074 q 878 1076 878 1079 q 878 1142 850 1175 q 823 1208 781 1208 q 749 1208 721 1194 q 693 1179 668 1153 q 695 1125 708 1092 q 722 1058 722 1022 q 722 1015 721 1007 q 719 996 709 996 q 700 996 700 1007 q 700 1012 700 1018 q 700 1050 688 1080 q 677 1111 654 1136 q 619 1093 594 1033 q 570 973 560 920 q 550 866 550 823 q 550 808 552 773 q 555 738 577 702 q 654 730 710 774 q 766 819 803 870 q 840 921 858 974 q 877 1028 878 1074 z m 593 -9 q 638 5 683 42 q 728 79 763 128 q 798 176 820 230 q 842 284 842 332 q 842 385 803 385 q 764 385 718 334 q 691 304 668 263 q 644 222 628 176 q 611 130 602 85 q 593 40 593 -1 q 593 -5 593 -9 z"},"s":{"x_min":0,"x_max":342,"ha":342,"o":"m 371 264 q 348 221 308 194 q 268 168 220 161 q 222 150 222 140 q 222 118 213 94 q 204 69 183 47 q 162 25 134 12 q 105 0 73 0 q 29 0 4 22 q -22 45 -22 82 q -22 127 15 154 q 52 180 116 183 q 101 215 80 243 q 58 271 39 300 l 29 264 q 29 263 24 262 q 19 262 14 262 q 8 262 4 262 q 0 263 0 264 q 5 280 10 298 q 11 302 12 306 l 12 308 q 13 311 13 314 l 14 315 q 14 315 14 316 l 14 317 q 16 326 19 335 l 19 336 q 8 355 4 374 q 0 393 0 408 q 0 450 18 474 q 37 498 56 498 q 67 498 75 488 q 83 477 83 454 q 83 434 78 413 q 73 392 70 383 q 81 363 102 341 q 122 319 144 295 q 166 271 186 244 q 205 217 214 187 q 252 192 287 211 q 322 230 342 264 q 347 269 357 269 q 368 269 371 264 z m 60 32 q 80 32 95 42 q 110 51 120 68 q 129 84 130 98 q 131 112 131 117 q 131 136 126 156 q 69 154 38 134 q 6 115 6 83 q 6 60 21 46 q 36 32 60 32 z"},">":{"x_min":0,"x_max":405,"ha":405,"o":"m 71 90 q 65 90 61 94 q 57 98 56 102 q 54 107 54 110 q 54 113 56 118 q 57 123 63 127 q 86 143 114 166 q 141 190 171 218 q 201 246 232 276 q 264 307 293 336 q 265 364 232 394 q 198 423 166 450 q 133 477 104 500 q 74 523 52 539 q 46 544 45 548 q 44 553 44 555 q 44 559 46 564 q 48 569 54 574 q 59 578 65 578 q 70 578 75 574 q 102 554 134 529 q 165 504 198 476 q 232 448 266 418 q 299 388 330 357 q 336 352 336 344 q 336 337 333 329 q 330 321 326 314 q 321 308 317 304 q 310 297 291 278 q 272 260 246 236 q 221 212 193 186 q 165 161 140 140 q 115 118 96 104 q 77 90 71 90 z"},"l":{"x_min":0,"x_max":293,"ha":293,"o":"m 109 389 q 108 379 105 358 q 102 336 99 307 q 96 278 94 245 q 92 212 92 179 q 92 151 94 124 q 96 98 102 78 q 107 59 116 47 q 126 35 140 35 q 158 35 175 48 q 192 62 208 83 q 223 104 236 130 q 250 156 262 182 q 273 207 281 229 q 289 251 293 264 q 293 266 297 267 q 301 268 306 268 q 312 268 317 267 q 322 266 322 265 q 322 264 322 264 q 312 232 294 186 q 277 141 252 99 q 227 57 194 28 q 161 -2 119 -2 q 63 -2 31 53 q -1 108 -1 202 q -1 242 3 296 q 7 351 15 414 q 23 477 35 544 q 47 610 63 674 q 79 738 99 795 q 119 852 144 894 q 168 937 197 962 q 226 988 259 988 q 291 988 314 963 q 337 938 337 884 q 337 848 326 804 q 314 761 296 715 q 277 669 253 622 q 229 575 204 532 q 179 489 154 452 q 129 415 109 389 z m 264 956 q 241 956 222 923 q 202 890 186 839 q 170 788 158 726 q 145 664 136 608 q 127 551 122 506 q 117 462 115 445 q 132 469 152 502 q 173 535 194 573 q 216 611 236 652 q 257 693 273 734 q 289 774 299 811 q 309 848 309 879 q 309 917 295 936 q 281 956 264 956 z"},"8":{"x_min":0,"x_max":594,"ha":594,"o":"m 221 485 q 193 504 168 525 q 142 546 122 572 q 103 597 92 628 q 80 659 78 698 q 78 703 78 708 q 78 756 96 796 q 115 835 148 862 q 181 890 223 904 q 265 918 309 918 q 351 918 390 905 q 429 892 460 866 q 490 840 508 802 q 526 763 526 713 q 526 711 526 708 q 525 639 486 581 q 447 523 376 485 q 411 464 444 442 q 477 419 503 390 q 529 362 545 326 q 561 291 563 245 q 563 240 563 235 q 563 181 542 138 q 520 95 481 64 q 442 33 392 18 q 343 2 291 2 q 244 2 198 16 q 153 29 117 56 q 81 84 58 126 q 34 167 31 223 q 30 230 30 238 q 30 269 42 304 q 54 340 79 374 q 104 409 140 438 q 176 466 221 485 z m 353 499 q 497 582 498 713 q 498 716 498 718 q 498 760 482 793 q 467 826 441 848 q 415 871 382 882 q 348 893 314 893 q 281 893 250 882 q 220 872 197 852 q 174 831 162 803 q 149 775 149 742 q 149 735 150 727 q 153 684 171 651 q 189 618 217 592 q 245 565 280 543 q 316 521 353 499 z m 244 469 q 202 450 168 424 q 135 397 111 366 q 87 334 74 300 q 61 265 61 230 q 62 182 83 145 q 104 108 137 82 q 170 57 211 44 q 252 30 293 30 q 330 30 364 40 q 398 51 424 73 q 449 95 463 126 q 477 158 477 197 q 477 202 477 207 q 476 258 454 296 q 433 334 400 364 q 366 394 326 419 q 285 444 244 469 z"},"\\":{"x_min":0,"x_max":382,"ha":382,"o":"m 221 2 q 221 49 215 120 q 209 190 198 275 q 187 360 172 454 q 157 547 140 639 q 122 731 104 816 q 85 902 66 971 q 66 973 66 974 q 66 988 81 996 q 96 1005 113 1005 q 126 1005 136 1000 q 145 995 147 984 q 161 924 174 840 q 188 755 200 660 q 212 564 222 464 q 231 365 237 276 q 243 186 244 140 q 245 94 245 76 q 245 30 242 0 q 241 -5 234 -5 q 232 -5 226 -4 q 221 -4 221 2 z"},"e":{"x_min":0,"x_max":394,"ha":394,"o":"m 167 38 q 203 38 240 62 q 276 86 307 120 q 338 155 361 194 q 384 234 394 264 q 395 268 408 268 q 414 268 418 267 q 423 266 423 265 q 423 264 423 264 q 407 219 378 172 q 350 125 312 86 q 275 48 230 24 q 185 0 134 0 q 96 0 68 14 q 40 29 22 53 q 4 77 -5 109 q -14 141 -14 175 q -14 219 1 264 q 16 309 42 346 q 68 382 105 405 q 142 428 185 428 q 225 428 247 408 q 269 389 269 354 q 269 321 250 290 q 230 260 202 236 q 173 211 140 193 q 107 175 80 167 q 80 146 84 123 q 88 100 98 82 q 108 63 124 50 q 141 38 167 38 z m 82 197 q 104 205 132 220 q 159 235 184 256 q 208 277 224 302 q 241 326 241 353 q 241 373 231 385 q 221 397 202 397 q 177 397 156 376 q 135 355 120 324 q 104 294 94 259 q 85 224 82 197 z"},"b":{"x_min":0,"x_max":509,"ha":509,"o":"m 122 65 q 122 95 137 115 q 152 135 176 148 q 199 160 226 166 q 253 171 277 171 q 289 209 294 244 q 300 280 300 307 q 300 314 299 333 q 298 352 289 372 q 280 392 261 392 q 244 392 225 375 q 206 358 187 332 q 168 305 150 272 q 132 238 118 205 q 105 172 96 142 q 88 113 88 94 q 88 70 89 51 q 90 32 92 18 q 92 16 92 15 q 92 7 84 4 q 76 0 62 0 q 52 0 41 2 q 30 5 20 9 q 11 13 5 19 q -1 25 -2 32 q -5 63 -5 109 q -5 120 -4 157 q -4 194 2 268 q 7 343 17 425 q 27 507 42 587 q 57 667 78 740 q 99 812 126 867 q 152 922 184 955 q 216 988 255 988 q 287 988 310 963 q 333 938 333 884 q 333 848 322 804 q 310 761 292 715 q 273 669 249 622 q 225 575 200 532 q 175 489 150 452 q 125 415 105 389 q 100 344 97 302 q 94 259 92 220 q 108 259 130 296 q 152 333 176 362 q 201 392 226 410 q 252 428 276 428 q 318 428 344 404 q 370 381 380 348 q 391 314 391 277 q 391 270 390 243 q 388 216 373 171 q 419 176 451 196 q 483 216 509 264 q 512 268 523 268 q 528 268 532 267 q 536 266 538 264 q 522 233 505 210 q 488 188 467 174 q 446 159 420 152 q 394 144 362 142 q 349 114 332 88 q 314 62 292 42 q 271 23 246 12 q 221 0 194 0 q 159 0 140 20 q 122 39 122 65 z m 260 956 q 237 956 218 923 q 198 890 182 839 q 166 788 154 726 q 141 664 132 608 q 123 551 118 506 q 113 462 111 445 q 128 469 148 502 q 169 535 190 573 q 212 611 232 652 q 253 693 269 734 q 285 774 295 811 q 305 848 305 879 q 305 917 291 936 q 277 956 260 956 z m 268 143 q 252 143 232 138 q 211 134 193 125 q 175 116 162 102 q 150 87 150 66 q 150 51 158 42 q 166 33 178 33 q 191 33 204 42 q 216 52 228 68 q 240 84 250 104 q 260 123 268 143 z"},"m":{"x_min":0,"x_max":757,"ha":757,"o":"m 757 264 q 758 268 771 268 q 777 268 782 267 q 786 266 786 265 q 786 264 786 264 q 776 233 759 188 q 742 143 718 101 q 693 59 661 30 q 629 0 589 0 q 558 0 538 10 q 518 20 506 38 q 494 55 490 78 q 485 100 485 125 q 485 175 495 226 q 505 277 505 318 q 505 343 499 364 q 493 386 474 386 q 459 386 441 364 q 423 342 404 302 q 385 262 366 206 q 348 149 332 81 q 330 63 330 51 q 329 39 329 32 q 329 24 329 17 q 329 9 322 6 q 314 2 303 2 q 292 2 279 5 q 266 8 256 13 q 245 18 238 25 q 231 32 231 40 q 232 52 236 82 q 240 112 244 150 q 248 189 250 220 q 252 251 252 270 q 252 289 250 314 q 248 340 240 362 q 231 385 213 385 q 195 385 178 362 q 162 339 148 304 q 134 268 122 224 q 110 181 101 140 q 92 98 86 64 q 81 29 79 12 q 78 5 72 2 q 65 -1 54 -1 q 43 -1 30 2 q 18 5 8 10 q -3 16 -10 23 q -17 30 -17 38 q -16 77 -13 124 q -10 172 -4 222 q 1 271 8 318 q 15 365 22 404 q 24 417 42 423 q 60 429 80 429 q 98 429 110 424 q 122 419 122 411 q 122 409 121 407 q 116 388 110 342 q 103 297 96 242 q 107 278 120 311 q 132 344 148 369 q 165 394 188 409 q 210 424 240 424 q 271 424 292 408 q 312 392 324 365 q 336 338 340 307 q 343 276 343 247 q 343 239 343 232 q 408 422 487 422 q 519 422 540 412 q 560 401 572 383 q 584 365 588 341 q 593 317 593 290 q 593 267 590 242 q 587 218 584 194 q 580 170 578 148 q 575 125 575 105 q 575 102 575 98 q 575 75 582 55 q 588 35 608 35 q 633 35 658 64 q 682 93 702 132 q 722 170 737 208 q 752 246 757 264 z"},"#":{"x_min":0,"x_max":865,"ha":865,"o":"m 86 563 q 124 568 170 572 q 215 576 265 578 q 276 675 288 756 q 300 838 308 887 q 310 898 320 903 q 329 908 342 908 q 359 908 374 900 q 389 891 389 877 q 389 876 389 874 q 379 820 365 745 q 351 670 334 582 q 390 584 446 585 q 503 586 558 586 q 569 680 580 760 q 592 839 600 887 q 602 898 612 903 q 621 908 634 908 q 651 908 666 900 q 681 891 681 877 q 681 876 681 874 q 672 821 658 746 q 643 672 627 585 q 674 584 716 582 q 757 581 793 578 q 802 577 807 571 q 812 565 813 560 q 814 556 814 554 q 814 550 812 546 q 809 542 803 542 q 802 542 801 542 q 761 545 716 547 q 670 549 621 551 q 610 494 600 436 q 590 377 581 320 q 635 319 685 316 q 735 314 778 310 q 786 310 792 304 q 797 298 798 294 q 798 290 798 288 q 798 284 796 279 q 793 274 785 274 q 741 276 688 278 q 635 280 576 282 q 564 200 556 128 q 549 56 549 2 q 549 -4 544 -4 q 538 -5 536 -5 q 529 -5 528 0 q 521 42 521 104 q 521 112 522 153 q 522 194 529 282 q 488 283 447 283 q 426 283 384 282 q 343 282 283 280 q 272 199 264 127 q 257 55 257 2 q 257 -4 252 -4 q 246 -5 244 -5 q 237 -5 236 0 q 229 41 229 103 q 229 110 230 150 q 230 191 236 278 q 188 276 145 272 q 102 269 65 264 q 63 264 62 264 q 56 264 54 267 q 51 270 51 274 q 51 276 52 280 q 52 283 57 288 q 62 294 70 295 q 107 300 150 304 q 192 309 239 312 q 244 370 250 430 q 255 490 262 549 q 212 546 166 542 q 121 537 81 531 q 80 531 78 531 q 72 531 70 534 q 67 538 67 542 q 67 544 68 548 q 68 551 73 556 q 78 562 86 563 z m 329 551 q 318 493 308 434 q 298 374 289 315 q 349 319 410 320 q 471 321 531 321 q 536 378 542 436 q 547 495 554 553 q 517 554 479 554 q 460 554 422 554 q 385 553 329 551 z"},",":{"x_min":0,"x_max":160,"ha":160,"o":"m 68 109 q 74 111 80 111 q 93 111 106 102 q 120 94 125 74 q 126 67 126 59 q 126 50 124 36 q 121 22 114 4 q 107 -15 98 -30 q 90 -46 83 -55 q 77 -62 71 -62 q 64 -62 62 -57 q 59 -52 59 -49 q 59 -45 62 -41 q 63 -39 66 -31 q 70 -23 74 -14 q 78 -4 82 4 q 86 13 87 16 q 83 15 78 15 q 65 15 51 24 q 37 32 32 52 q 30 58 30 64 q 30 76 40 90 q 49 104 68 109 z"},"n":{"x_min":0,"x_max":506,"ha":506,"o":"m 506 264 q 507 268 520 268 q 525 268 530 267 q 535 266 535 265 q 535 264 535 264 q 529 245 521 222 q 513 199 502 175 q 492 151 480 128 q 469 104 455 83 q 434 50 405 25 q 376 0 332 0 q 284 0 258 33 q 233 66 233 129 q 233 152 236 177 q 239 202 242 227 q 246 252 249 277 q 252 302 252 324 q 252 334 251 345 q 250 356 247 365 q 244 374 238 380 q 232 386 223 386 q 204 386 187 362 q 170 339 155 303 q 140 267 127 223 q 114 179 104 137 q 95 95 88 62 q 82 28 79 12 q 78 5 71 2 q 64 -1 54 -1 q 43 -1 30 2 q 18 5 8 10 q -3 16 -10 23 q -17 30 -17 38 q -16 77 -13 124 q -10 172 -4 222 q 1 271 8 318 q 15 365 22 404 q 24 417 42 423 q 60 429 80 429 q 98 429 110 424 q 122 419 122 411 q 122 409 121 407 q 118 397 115 378 q 112 358 108 333 q 105 308 101 278 q 97 249 94 219 q 105 258 118 294 q 130 330 148 358 q 165 387 188 404 q 212 421 245 421 q 270 421 288 411 q 306 401 318 383 q 330 365 336 341 q 341 317 341 289 q 341 245 332 195 q 323 145 323 103 q 323 90 324 78 q 326 66 330 56 q 334 46 340 40 q 346 34 356 34 q 367 34 378 42 q 390 49 401 60 q 412 71 421 84 q 430 96 436 106 q 447 122 457 142 q 467 162 476 183 q 485 204 492 225 q 500 246 506 264 z"},"h":{"x_min":0,"x_max":534,"ha":534,"o":"m -1 32 q -3 51 -4 76 q -5 102 -5 132 q -5 202 2 292 q 9 383 22 478 q 35 573 56 664 q 76 756 104 828 q 133 900 170 944 q 206 988 251 988 q 283 988 306 963 q 329 938 329 884 q 329 848 318 804 q 306 761 288 715 q 269 669 245 622 q 221 575 196 532 q 171 489 146 452 q 121 415 101 389 q 89 274 89 156 q 89 140 89 123 q 109 205 129 264 q 149 323 171 361 q 193 399 218 417 q 243 435 273 435 q 318 435 344 398 q 369 361 369 293 q 369 246 360 196 q 352 145 351 105 q 351 34 385 34 q 402 34 418 48 q 434 62 450 84 q 465 105 478 132 q 492 158 503 184 q 514 209 522 230 q 530 252 534 264 q 535 268 548 268 q 554 268 558 267 q 563 266 563 265 q 563 264 563 264 q 557 244 547 216 q 537 189 524 160 q 511 130 494 102 q 478 73 458 50 q 439 28 416 14 q 393 0 366 0 q 261 0 261 131 q 261 155 264 182 q 267 208 270 234 q 274 260 277 286 q 280 311 280 332 q 280 399 249 399 q 231 399 214 376 q 197 353 181 317 q 165 281 151 237 q 137 193 126 150 q 115 107 106 70 q 97 34 92 14 q 90 6 82 3 q 74 0 62 0 q 42 0 21 9 q 0 18 -1 32 z m 256 956 q 233 956 214 923 q 194 890 178 839 q 162 788 150 726 q 137 664 128 608 q 119 551 114 506 q 109 462 107 445 q 124 469 144 502 q 165 535 186 573 q 208 611 228 652 q 249 693 265 734 q 281 774 291 811 q 301 848 301 879 q 301 917 287 936 q 273 956 256 956 z"},"z":{"x_min":0,"x_max":480,"ha":480,"o":"m 480 264 q 481 268 494 268 q 499 268 504 267 q 509 266 509 265 q 509 264 509 264 q 491 207 463 165 q 435 123 401 90 q 367 57 328 31 q 289 5 247 -20 q 279 -54 285 -91 q 291 -128 291 -153 q 291 -182 284 -226 q 276 -269 250 -326 q 224 -382 188 -428 q 151 -473 106 -501 q 62 -529 14 -529 q -40 -529 -71 -493 q -102 -457 -102 -398 q -102 -352 -82 -304 q -62 -255 -24 -207 q 13 -159 68 -113 q 122 -67 191 -25 q 189 -22 187 -18 q 185 -14 183 -12 q 175 -14 166 -15 q 158 -16 150 -16 q 123 -16 108 -8 q 94 0 92 6 q 90 11 90 13 q 90 20 98 27 q 106 34 126 34 q 142 34 160 28 q 185 46 199 79 q 213 112 222 150 q 230 189 234 228 q 238 266 244 295 q 213 264 181 264 q 160 264 148 274 q 135 284 127 298 q 119 313 115 330 q 111 347 108 362 q 104 376 100 386 q 97 396 90 396 q 81 396 71 379 q 61 362 52 340 q 44 317 38 296 q 32 274 29 264 q 28 263 24 262 q 19 262 14 262 q 9 262 4 262 q 0 263 0 264 q 5 280 12 307 q 19 334 30 360 q 42 386 58 405 q 74 424 96 424 q 112 424 122 414 q 131 405 138 390 q 144 376 148 358 q 153 341 158 326 q 163 312 170 302 q 178 292 190 292 q 209 292 227 313 q 245 334 263 359 q 281 384 298 405 q 315 426 333 426 q 334 426 335 426 q 348 426 354 418 q 360 410 360 403 q 360 399 358 395 q 345 367 337 332 q 329 296 322 258 q 316 220 309 182 q 302 143 292 108 q 281 74 264 46 q 247 19 221 2 l 226 -2 q 267 22 306 48 q 344 73 377 104 q 410 134 436 173 q 463 212 480 264 z m 1 -501 q 34 -501 64 -476 q 94 -450 119 -409 q 144 -368 163 -318 q 182 -267 193 -217 q 204 -167 206 -139 q 207 -111 207 -102 q 207 -70 201 -49 q 137 -88 86 -132 q 35 -176 0 -221 q -36 -266 -55 -311 q -74 -356 -74 -399 q -74 -444 -54 -472 q -34 -501 1 -501 z"},"B":{"x_min":0,"x_max":1222,"ha":1222,"o":"m 749 595 q 770 596 790 596 q 868 596 933 572 q 998 548 1042 500 q 1085 451 1098 398 q 1111 346 1111 303 q 1111 279 1105 233 q 1099 187 1066 121 q 1034 55 981 4 q 928 -48 856 -80 q 784 -112 695 -112 q 649 -112 608 -103 q 567 -94 530 -80 q 494 -66 462 -48 q 429 -31 398 -13 q 354 -56 302 -82 q 249 -108 184 -108 q 134 -108 102 -93 q 71 -78 58 -57 q 45 -36 45 -13 q 45 -10 46 4 q 47 19 64 42 q 82 64 114 79 q 147 94 192 94 q 240 94 283 78 q 326 63 368 40 q 399 84 423 140 q 447 195 466 256 q 485 317 500 380 q 514 443 526 502 q 538 562 548 614 q 557 667 566 707 q 577 757 590 818 q 604 880 622 944 q 639 1007 662 1068 q 684 1130 713 1179 q 656 1188 594 1188 q 488 1188 400 1158 q 312 1129 244 1081 q 176 1033 129 971 q 82 909 57 844 q 32 778 32 719 q 32 713 34 678 q 35 643 60 596 q 86 548 130 521 q 173 494 225 494 q 271 494 314 515 q 356 536 388 572 q 420 609 440 658 q 459 706 459 761 q 459 795 446 821 q 433 847 404 860 q 402 863 402 866 q 402 869 405 875 q 408 881 414 881 q 415 881 416 881 q 466 861 490 820 q 514 778 514 727 q 514 671 493 622 q 472 574 436 538 q 399 502 350 482 q 300 461 242 461 q 176 461 122 492 q 67 522 36 576 q 4 630 2 670 q 0 710 0 717 q 0 785 33 862 q 62 929 113 992 q 164 1055 236 1104 q 308 1153 400 1182 q 493 1212 605 1212 q 634 1212 665 1210 q 696 1207 728 1202 q 742 1223 758 1241 q 775 1259 793 1272 q 797 1275 801 1275 q 803 1275 806 1274 q 810 1273 814 1269 q 817 1265 817 1259 q 817 1253 811 1248 q 797 1237 784 1224 q 771 1211 761 1197 q 817 1186 868 1165 q 919 1144 959 1112 q 999 1080 1022 1036 q 1046 992 1046 933 q 1046 879 1023 826 q 1000 772 960 726 q 919 680 865 646 q 811 611 749 595 z m 420 11 q 447 -4 475 -19 q 503 -34 532 -46 q 561 -58 593 -65 q 625 -72 659 -72 q 727 -72 785 -44 q 843 -17 888 28 q 933 74 963 132 q 993 190 1003 240 q 1013 289 1013 326 q 1013 348 1008 388 q 1003 427 974 472 q 945 518 892 546 q 840 573 761 573 q 712 573 662 564 q 649 564 649 575 q 649 586 659 588 q 723 606 777 636 q 831 665 870 706 q 910 747 934 799 q 958 851 962 913 q 962 922 962 931 q 962 978 948 1018 q 934 1058 905 1090 q 876 1121 835 1141 q 794 1161 746 1172 q 727 1135 712 1082 q 696 1029 684 968 q 673 906 664 840 q 654 773 646 709 q 638 645 631 588 q 624 530 616 485 q 607 437 592 376 q 576 314 552 250 q 529 185 496 123 q 463 61 420 11 z m 349 14 q 312 34 274 49 q 235 64 192 64 q 139 64 110 42 q 81 20 80 5 q 78 -10 78 -13 q 78 -36 100 -57 q 123 -78 175 -78 q 229 -78 272 -54 q 314 -29 349 14 z"},"K":{"x_min":0,"x_max":1150,"ha":1150,"o":"m 346 65 q 355 61 357 56 q 359 51 359 48 q 359 45 357 41 q 355 37 350 36 q 346 34 343 34 q 339 34 334 36 q 306 49 278 56 q 250 64 220 64 q 167 64 138 42 q 109 20 108 5 q 106 -10 106 -13 q 106 -36 128 -57 q 151 -78 203 -78 q 274 -78 326 -36 q 379 7 418 76 q 458 144 486 230 q 514 316 534 404 q 553 491 568 571 q 582 651 594 707 q 605 758 619 820 q 633 882 651 946 q 669 1011 692 1073 q 715 1135 745 1184 q 716 1161 680 1148 q 645 1136 593 1136 q 560 1136 528 1140 q 497 1144 466 1150 q 436 1155 408 1159 q 380 1163 355 1163 q 289 1163 239 1131 q 189 1099 156 1049 q 122 999 106 939 q 89 879 89 823 q 89 794 94 766 q 100 738 114 714 q 128 691 152 675 q 177 659 215 654 q 224 653 224 644 q 224 633 213 633 q 166 633 126 654 q 87 675 59 710 q 31 745 16 790 q 0 836 0 885 q 0 945 24 1002 q 48 1058 92 1101 q 136 1144 197 1170 q 258 1196 331 1196 q 367 1196 401 1190 q 435 1185 468 1178 q 502 1171 534 1166 q 567 1160 600 1160 q 643 1160 672 1168 q 701 1177 724 1192 q 748 1207 770 1228 q 792 1248 821 1272 q 825 1275 829 1275 q 831 1275 834 1274 q 838 1273 842 1269 q 845 1265 845 1259 q 845 1253 839 1248 q 821 1234 806 1217 q 790 1200 779 1181 q 761 1150 746 1106 q 732 1061 720 1008 q 709 955 700 897 q 691 839 683 780 q 675 721 668 665 q 662 609 655 560 q 709 572 752 594 q 796 616 836 654 q 876 693 916 750 q 956 808 1002 890 q 1020 923 1043 962 q 1066 1002 1094 1042 q 1121 1083 1152 1121 q 1182 1159 1216 1188 q 1251 1218 1288 1236 q 1325 1255 1364 1255 q 1370 1255 1370 1247 q 1370 1239 1363 1238 q 1328 1236 1302 1220 q 1275 1205 1254 1180 q 1232 1154 1214 1119 q 1195 1084 1176 1042 q 1157 1000 1135 953 q 1113 906 1085 856 q 1016 734 922 658 q 827 583 695 545 q 772 542 829 506 q 886 469 915 409 q 930 378 938 341 q 946 304 950 264 q 953 225 953 184 q 953 144 952 106 q 952 87 952 70 q 952 35 954 1 q 955 -33 965 -60 q 975 -87 996 -101 q 1016 -115 1052 -117 q 1057 -117 1059 -120 q 1061 -123 1061 -126 q 1061 -127 1060 -130 q 1060 -132 1057 -136 q 1054 -139 1049 -139 q 1018 -138 988 -124 q 957 -110 932 -82 q 906 -55 888 -13 q 870 29 863 87 q 859 120 858 159 q 856 198 855 237 q 854 276 852 314 q 851 351 848 381 q 844 414 832 441 q 821 468 798 487 q 776 506 742 514 q 709 523 668 523 q 659 523 650 523 q 641 466 625 398 q 609 329 584 258 q 559 188 524 122 q 489 56 444 5 q 398 -46 340 -77 q 283 -108 212 -108 q 162 -108 130 -93 q 99 -78 86 -57 q 73 -36 73 -13 q 73 -10 74 4 q 75 19 92 42 q 110 64 142 79 q 175 94 220 94 q 254 94 285 86 q 316 78 346 65 z"},"R":{"x_min":0,"x_max":1164,"ha":1164,"o":"m 339 82 q 344 80 344 74 q 344 69 342 64 q 339 58 336 55 q 332 52 330 52 q 328 52 327 53 q 296 68 266 77 q 235 86 202 86 q 149 86 120 64 q 91 42 90 27 q 88 12 88 9 q 88 -14 110 -35 q 133 -56 185 -56 q 256 -56 308 -15 q 360 26 398 92 q 436 158 462 241 q 489 324 508 409 q 527 494 540 572 q 553 651 566 707 q 577 759 591 822 q 605 885 624 950 q 643 1014 668 1076 q 692 1137 724 1186 l 717 1186 l 702 1187 l 695 1187 q 619 1187 540 1174 q 461 1160 388 1134 q 314 1107 249 1067 q 184 1027 136 974 q 87 920 59 854 q 31 787 31 707 q 31 666 43 628 q 55 589 78 560 q 102 530 136 512 q 171 494 215 494 q 268 494 313 516 q 358 539 390 576 q 423 614 441 662 q 459 710 459 761 q 459 792 446 820 q 434 847 404 861 q 401 862 401 866 q 401 868 404 874 q 406 881 416 881 q 420 881 426 878 q 471 852 492 816 q 514 780 514 727 q 514 670 492 622 q 471 573 434 537 q 397 501 348 481 q 298 461 242 461 q 188 461 144 480 q 99 500 67 534 q 35 567 18 613 q 0 659 0 712 q 0 795 30 864 q 60 934 112 990 q 164 1045 234 1087 q 305 1129 385 1156 q 465 1184 551 1198 q 637 1212 721 1212 l 742 1212 q 767 1243 793 1262 q 797 1265 801 1265 q 803 1265 806 1264 q 810 1263 814 1259 q 817 1255 817 1249 q 817 1243 811 1238 q 803 1231 795 1224 q 787 1218 780 1210 q 885 1202 962 1170 q 1038 1137 1088 1090 q 1137 1042 1160 985 q 1182 928 1182 871 q 1182 868 1181 836 q 1180 804 1155 748 q 1130 691 1083 647 q 1036 603 968 576 q 900 550 813 550 q 848 532 874 504 q 900 477 916 444 q 931 412 940 370 q 950 327 956 284 q 961 240 964 200 q 966 159 967 129 q 970 63 974 18 q 978 -28 989 -58 q 1000 -87 1020 -101 q 1041 -115 1077 -117 q 1082 -117 1084 -120 q 1086 -123 1086 -126 q 1086 -127 1086 -130 q 1085 -132 1082 -136 q 1079 -139 1074 -139 q 1034 -139 1002 -123 q 969 -107 944 -78 q 920 -48 904 -8 q 888 33 879 82 q 873 117 869 162 q 865 207 862 251 q 859 295 857 334 q 855 373 852 397 q 848 435 837 464 q 826 494 805 514 q 784 534 752 545 q 719 556 671 556 q 657 556 656 562 q 655 567 655 567 q 655 576 673 576 q 696 573 720 572 q 745 571 776 571 q 846 571 902 596 q 958 620 998 660 q 1039 701 1062 753 q 1085 805 1087 838 q 1089 870 1089 879 q 1089 925 1074 974 q 1058 1024 1018 1069 q 978 1114 914 1144 q 850 1175 759 1184 q 755 1178 751 1171 q 731 1136 715 1084 q 699 1032 686 970 q 674 909 664 843 q 655 777 647 712 q 639 648 632 590 q 624 531 616 485 q 607 436 592 374 q 577 313 554 250 q 530 186 497 126 q 464 66 420 18 q 376 -29 320 -58 q 264 -86 194 -86 q 144 -86 112 -71 q 81 -56 68 -35 q 55 -14 55 9 q 55 12 56 26 q 57 41 74 64 q 92 86 124 101 q 157 116 202 116 q 239 116 273 106 q 307 97 339 82 z"},"T":{"x_min":0,"x_max":812,"ha":812,"o":"m 354 55 q 360 52 362 48 q 363 43 363 40 q 363 37 361 32 q 359 28 355 26 q 351 24 348 24 q 344 24 340 26 q 311 37 284 46 q 257 54 227 54 q 174 54 145 32 q 116 10 114 -5 q 113 -20 113 -23 q 113 -46 136 -67 q 158 -88 210 -88 q 281 -88 334 -45 q 386 -2 426 68 q 466 138 494 228 q 523 319 544 414 q 566 509 582 601 q 599 693 615 766 q 621 792 630 832 q 638 871 650 918 q 663 965 680 1016 q 696 1066 718 1112 q 692 1114 668 1115 q 643 1116 619 1116 q 491 1116 392 1090 q 294 1063 222 1019 q 151 975 107 918 q 63 861 46 808 q 30 754 30 708 q 30 693 34 656 q 37 619 66 569 q 96 519 148 484 q 200 448 273 437 q 277 437 279 434 q 281 430 281 426 q 281 425 280 422 q 280 419 278 416 q 275 412 270 412 q 269 412 268 412 q 169 427 106 478 q 43 530 22 590 q 0 650 0 704 q 0 730 8 786 q 17 842 68 921 q 120 1000 211 1066 q 302 1131 433 1166 q 511 1187 574 1190 q 637 1193 679 1193 q 721 1193 763 1191 q 792 1235 828 1262 q 832 1265 836 1265 q 838 1265 842 1264 q 845 1263 848 1259 q 852 1255 852 1249 q 852 1243 846 1238 q 817 1216 798 1189 q 892 1183 976 1174 q 1061 1165 1128 1165 q 1173 1165 1206 1171 q 1240 1177 1261 1193 q 1264 1195 1267 1195 q 1271 1195 1275 1190 q 1279 1186 1279 1181 q 1279 1179 1277 1176 q 1253 1152 1218 1137 q 1184 1122 1142 1113 q 1101 1104 1056 1100 q 1010 1097 964 1097 q 906 1097 852 1100 q 799 1104 758 1108 q 743 1066 732 1014 q 720 961 710 904 q 701 847 693 788 q 685 728 678 671 q 671 614 664 562 q 657 511 650 470 q 642 422 626 360 q 610 298 586 232 q 561 167 527 104 q 493 41 448 -8 q 403 -57 346 -88 q 289 -118 219 -118 q 169 -118 138 -103 q 106 -88 93 -67 q 80 -46 80 -23 q 80 -20 81 -6 q 82 9 100 32 q 117 54 150 69 q 182 84 227 84 q 294 84 354 55 z"},"P":{"x_min":0,"x_max":1175,"ha":1175,"o":"m 350 56 q 355 55 356 52 q 356 48 356 47 q 356 42 354 37 q 351 32 348 29 q 344 26 342 26 q 340 26 339 27 q 307 40 280 46 q 253 52 228 52 q 220 52 213 52 q 160 49 132 26 q 105 2 104 -12 q 103 -27 103 -28 q 103 -53 126 -72 q 149 -90 191 -90 q 197 -90 204 -90 q 257 -87 298 -60 q 340 -34 372 9 q 404 52 428 109 q 451 166 468 229 q 486 292 498 358 q 511 425 520 488 q 529 551 536 607 q 542 663 549 706 q 557 758 568 822 q 578 886 592 952 q 607 1018 627 1082 q 647 1145 675 1196 q 600 1194 523 1178 q 446 1163 374 1135 q 303 1107 240 1066 q 178 1025 132 971 q 85 917 58 851 q 31 785 31 707 q 31 666 43 628 q 55 589 78 560 q 102 530 136 512 q 171 494 215 494 q 268 494 313 516 q 358 539 390 576 q 423 614 441 662 q 459 710 459 761 q 459 792 446 820 q 434 847 404 861 l 402 864 q 402 871 406 876 q 410 881 416 881 q 424 881 428 878 q 432 874 439 870 q 477 847 496 808 q 514 770 514 727 q 514 670 492 622 q 471 573 434 537 q 397 501 348 481 q 298 461 242 461 q 188 461 144 480 q 99 500 67 534 q 35 567 18 613 q 0 659 0 712 q 0 793 28 862 q 57 930 106 986 q 155 1041 222 1084 q 289 1127 366 1156 q 442 1186 525 1202 q 608 1218 690 1221 q 693 1226 700 1237 q 708 1248 718 1259 q 727 1270 736 1278 q 746 1287 752 1287 q 761 1287 764 1280 q 768 1274 768 1271 q 768 1265 762 1260 q 752 1251 743 1242 q 734 1233 726 1222 q 855 1221 948 1190 q 1040 1159 1100 1108 q 1159 1058 1187 994 q 1215 929 1215 861 q 1215 794 1196 740 q 1178 685 1148 642 q 1117 599 1076 568 q 1035 536 990 516 q 945 495 898 485 q 851 475 809 475 q 773 475 742 482 q 711 489 688 504 q 665 518 652 538 q 639 559 639 586 q 639 607 647 625 q 655 643 668 651 q 671 653 673 653 q 678 653 680 648 q 682 644 682 641 q 682 637 678 634 q 670 629 665 617 q 660 605 660 588 q 660 547 692 526 q 725 506 774 506 q 825 506 884 528 q 944 551 996 596 q 1047 642 1082 711 q 1116 780 1116 873 q 1116 934 1094 992 q 1071 1049 1022 1094 q 973 1139 896 1167 q 818 1195 709 1197 l 706 1190 q 688 1153 675 1100 q 662 1046 654 984 q 645 921 640 852 q 634 784 630 718 q 625 653 622 593 q 618 533 612 487 q 606 438 594 375 q 582 312 561 246 q 540 180 510 116 q 479 52 437 1 q 395 -50 340 -83 q 285 -116 215 -120 q 206 -121 197 -121 q 159 -121 130 -109 q 101 -97 86 -76 q 70 -55 70 -31 q 70 -29 70 -15 q 71 -1 87 22 q 103 46 134 63 q 166 80 211 82 q 219 82 227 82 q 256 82 286 76 q 317 70 350 56 z"},"|":{"x_min":0,"x_max":257,"ha":257,"o":"m 149 1212 l 149 -87 q 149 -92 143 -94 q 137 -97 129 -97 q 121 -97 115 -94 q 109 -92 109 -87 l 109 1212 q 109 1217 115 1220 q 121 1222 129 1222 q 137 1222 143 1220 q 149 1217 149 1212 z"},"t":{"x_min":0,"x_max":274,"ha":274,"o":"m 86 186 q 85 167 85 149 q 85 140 86 122 q 86 103 90 82 q 94 60 102 46 q 111 33 124 33 q 135 33 146 40 q 158 48 168 58 q 179 69 188 80 q 196 92 200 99 q 225 137 244 182 q 262 227 274 264 q 275 268 288 268 q 294 268 298 267 q 303 266 303 265 q 303 264 303 264 q 297 244 287 216 q 277 189 264 160 q 251 130 234 102 q 218 73 198 50 q 179 28 156 14 q 133 0 106 0 q 69 0 46 18 q 24 37 12 66 q 1 96 -2 125 q -4 154 -4 176 q -4 191 -3 205 q 2 302 8 378 q 14 455 22 521 q 3 519 -14 519 q -48 519 -75 528 q -102 537 -116 564 q -117 566 -117 567 q -117 571 -114 575 q -110 579 -104 579 q -100 579 -95 573 q -83 553 -62 548 q -41 543 -17 543 q 2 543 25 545 q 30 578 35 609 q 40 640 45 669 q 47 682 65 688 q 83 695 102 695 q 120 695 132 690 q 144 684 144 675 q 144 673 144 672 q 143 667 142 663 l 142 661 q 141 656 140 651 l 140 650 q 139 645 138 640 l 138 638 q 137 634 136 629 l 136 627 q 135 622 134 618 l 134 616 q 129 588 124 559 q 180 569 217 569 q 263 569 277 549 q 279 547 279 544 q 279 541 276 536 q 273 532 266 532 q 262 532 258 536 q 246 548 218 548 q 198 548 174 544 q 149 539 121 534 q 108 451 99 364 q 90 277 86 186 z"},"M":{"x_min":0,"x_max":1488,"ha":1488,"o":"m 736 -84 q 731 -85 728 -85 q 720 -85 720 -82 q 719 -78 719 -76 q 719 -69 728 -64 q 753 -45 768 -3 q 784 39 796 104 q 809 170 822 261 q 834 352 853 469 q 860 510 871 572 q 882 634 898 706 q 914 777 934 852 q 954 927 978 994 q 1003 1062 1032 1117 q 1060 1172 1093 1202 q 1044 1193 998 1138 q 951 1082 906 996 q 862 911 818 805 q 775 699 731 589 q 680 461 630 344 q 581 227 524 138 q 467 48 398 -5 q 329 -58 238 -58 q 175 -58 132 -33 q 89 -8 64 34 q 40 75 35 114 q 30 153 30 177 q 30 208 37 253 q 44 298 68 356 q 92 413 130 461 q 157 495 190 521 q 222 547 258 564 q 293 582 329 591 q 365 600 399 600 q 442 600 478 586 q 514 571 537 542 q 560 513 564 484 q 569 456 569 441 q 569 407 558 365 q 548 328 530 294 q 512 259 488 232 q 463 206 434 190 q 405 173 373 173 q 363 176 363 187 q 363 198 373 202 q 401 202 427 216 q 453 230 474 254 q 496 277 513 307 q 530 337 539 369 q 550 407 550 438 q 550 450 546 475 q 542 500 522 526 q 502 551 470 564 q 438 577 401 577 q 342 577 280 546 q 219 514 177 451 q 149 408 132 356 q 116 305 114 272 q 111 238 111 223 q 111 187 118 146 q 126 104 147 67 q 168 30 200 8 q 233 -15 278 -15 q 351 -15 408 36 q 466 87 518 179 q 571 271 623 399 q 675 527 736 682 q 781 796 824 895 q 867 994 912 1068 q 957 1143 1006 1188 q 1056 1232 1115 1236 q 1125 1236 1130 1232 q 1134 1228 1134 1225 q 1135 1222 1135 1221 q 1135 1217 1132 1213 q 1130 1209 1127 1207 q 1088 1179 1064 1116 q 1041 1054 1023 960 q 1005 866 988 742 q 971 619 946 469 q 941 438 934 398 q 928 358 920 313 q 912 268 902 221 q 891 174 878 130 q 864 85 846 45 q 829 5 807 -25 q 848 4 882 46 q 915 88 942 136 q 969 183 990 232 q 1011 282 1027 326 q 1047 377 1065 430 q 1083 482 1102 536 q 1139 643 1180 749 q 1221 855 1274 946 q 1326 1036 1394 1104 q 1462 1173 1553 1205 q 1556 1206 1558 1206 q 1562 1206 1564 1203 q 1566 1200 1566 1197 q 1566 1193 1561 1188 q 1531 1156 1500 1088 q 1468 1019 1438 928 q 1408 836 1382 728 q 1355 621 1334 511 q 1314 401 1302 294 q 1291 188 1291 100 q 1291 68 1294 32 q 1296 -3 1303 -36 q 1310 -68 1324 -93 q 1337 -118 1359 -130 q 1364 -133 1364 -136 q 1365 -140 1365 -141 q 1365 -146 1360 -148 q 1333 -161 1307 -161 q 1270 -161 1248 -133 q 1225 -105 1214 -64 q 1202 -23 1198 24 q 1195 71 1195 109 q 1195 200 1207 300 q 1219 401 1241 502 q 1263 603 1293 701 q 1323 799 1360 887 q 1396 975 1437 1048 q 1478 1121 1521 1171 q 1444 1134 1385 1068 q 1326 1001 1279 916 q 1232 830 1194 731 q 1156 632 1121 530 q 1102 476 1084 423 q 1065 370 1046 319 q 1025 262 997 200 q 969 137 932 81 q 894 25 846 -20 q 798 -64 736 -84 z"},"g":{"x_min":0,"x_max":510,"ha":510,"o":"m 273 379 l 275 398 q 277 411 294 418 q 312 424 331 424 q 348 424 360 419 q 372 414 372 405 q 372 403 372 402 q 362 328 352 237 q 341 146 328 49 q 388 90 437 141 q 486 192 510 264 q 510 266 514 267 q 518 268 523 268 q 529 268 534 267 q 539 266 539 265 q 539 264 539 264 q 524 218 502 181 q 480 144 452 114 q 425 84 392 60 q 360 35 325 14 q 325 13 323 13 q 317 -27 308 -83 q 298 -139 283 -200 q 268 -260 246 -320 q 224 -380 194 -428 q 163 -475 123 -504 q 83 -534 32 -534 q -28 -534 -62 -494 q -95 -454 -95 -384 q -95 -281 -16 -186 q 64 -90 232 10 q 236 48 239 74 q 242 101 244 119 q 246 137 248 148 q 249 160 250 169 q 238 141 222 111 q 207 81 188 56 q 169 31 146 16 q 123 0 96 0 q 47 0 19 31 q -9 62 -14 96 q -20 129 -20 151 q -20 180 -12 222 q -4 265 24 312 q 51 358 94 389 q 137 420 194 420 q 223 420 242 409 q 262 398 273 379 z m 110 35 q 127 35 144 50 q 162 66 178 90 q 195 115 210 146 q 225 177 236 208 q 247 238 254 266 q 260 293 260 311 q 260 325 258 340 q 255 354 249 366 q 243 377 233 384 q 223 391 206 391 q 176 391 151 364 q 126 336 108 295 q 90 254 80 207 q 70 160 70 121 q 70 83 80 59 q 89 35 110 35 z m 16 -503 q 48 -503 74 -481 q 101 -459 122 -422 q 143 -384 160 -335 q 177 -286 190 -233 q 202 -180 212 -126 q 221 -72 227 -24 q 81 -112 6 -202 q -68 -292 -68 -386 q -68 -440 -45 -472 q -22 -503 16 -503 z"},"j":{"x_min":0,"x_max":250,"ha":250,"o":"m 61 503 q 39 507 29 524 q 19 540 19 556 q 19 562 20 569 q 25 592 41 604 q 57 617 73 617 q 77 617 82 616 q 104 611 114 595 q 124 579 124 563 q 124 556 123 549 q 118 526 102 514 q 87 502 72 502 q 67 502 61 503 z m 250 264 q 251 268 264 268 q 270 268 274 267 q 279 266 279 265 q 279 264 279 264 q 265 218 243 182 q 221 145 194 115 q 166 85 134 60 q 102 36 68 15 q 63 -26 53 -82 q 43 -138 27 -199 q 11 -260 -12 -320 q -35 -380 -66 -428 q -98 -475 -138 -504 q -179 -534 -230 -534 q -290 -534 -322 -494 q -355 -453 -355 -381 q -355 -311 -325 -254 q -295 -196 -248 -148 q -201 -101 -142 -62 q -84 -23 -28 10 q -16 113 -5 214 q 6 316 16 419 q 18 432 35 438 q 52 445 72 445 q 89 445 102 440 q 115 434 115 425 q 115 423 115 422 q 104 331 94 238 q 83 145 72 51 q 102 71 129 94 q 156 116 179 142 q 202 168 220 198 q 238 228 250 264 z m -245 -502 q -213 -502 -186 -480 q -160 -458 -138 -420 q -117 -383 -100 -334 q -83 -286 -70 -233 q -58 -180 -48 -126 q -39 -72 -33 -24 q -83 -54 -136 -90 q -188 -127 -231 -171 q -274 -215 -301 -268 q -328 -320 -328 -383 q -328 -438 -306 -470 q -284 -502 -245 -502 z"},"i":{"x_min":0,"x_max":268,"ha":268,"o":"m 82 486 q 60 491 50 507 q 40 523 40 539 q 40 545 41 552 q 46 576 62 588 q 78 600 94 600 q 98 600 103 599 q 125 595 135 578 q 145 562 145 546 q 145 540 144 533 q 139 509 123 497 q 107 485 91 485 q 87 485 82 486 z m 268 264 q 269 268 282 268 q 287 268 292 267 q 297 266 297 265 q 297 264 297 264 q 291 244 281 216 q 271 189 258 160 q 245 130 228 102 q 212 73 192 50 q 173 28 150 14 q 126 0 100 0 q 68 0 47 14 q 26 28 14 52 q 2 75 -2 106 q -7 137 -7 171 q -7 203 -3 236 q 1 268 6 298 q 10 327 16 352 q 21 378 24 395 q 26 408 44 414 q 62 421 82 421 q 99 421 111 416 q 123 410 123 401 q 123 399 123 398 q 120 387 113 356 q 106 324 98 284 q 91 244 86 200 q 80 157 80 121 q 80 83 88 59 q 97 35 118 35 q 135 35 152 48 q 168 62 184 84 q 199 105 213 132 q 227 158 238 184 q 249 209 257 230 q 265 252 268 264 z"},"y":{"x_min":0,"x_max":510,"ha":510,"o":"m 275 398 q 277 411 294 418 q 312 424 331 424 q 348 424 360 419 q 372 414 372 405 q 372 403 372 402 q 362 328 352 237 q 341 146 328 49 q 388 90 437 141 q 486 192 510 264 q 510 266 514 267 q 518 268 523 268 q 529 268 534 267 q 539 266 539 265 q 539 264 539 264 q 524 218 502 181 q 480 144 452 114 q 425 84 392 60 q 360 35 325 14 q 325 13 323 13 q 317 -27 308 -83 q 298 -139 283 -200 q 268 -260 246 -320 q 224 -380 194 -428 q 163 -475 123 -504 q 83 -534 32 -534 q -28 -534 -62 -494 q -95 -454 -95 -384 q -95 -281 -16 -186 q 64 -90 232 10 q 236 48 239 74 q 242 101 244 119 q 246 137 247 148 q 248 160 249 168 q 226 89 190 44 q 153 0 107 0 q 74 0 53 16 q 32 33 20 60 q 8 88 3 124 q -2 159 -2 197 q -2 256 6 310 q 13 365 19 398 q 21 411 40 418 q 58 424 78 424 q 95 424 107 419 q 119 414 119 406 q 119 404 118 402 q 114 383 108 352 q 102 322 98 286 q 93 250 90 212 q 87 173 87 138 q 88 94 96 66 q 104 37 124 37 q 146 37 164 58 q 183 79 198 112 q 214 146 227 188 q 240 229 250 269 q 259 309 266 344 q 272 378 275 398 z m 16 -503 q 48 -503 74 -481 q 101 -459 122 -422 q 143 -384 160 -335 q 177 -286 190 -233 q 202 -180 212 -126 q 221 -72 227 -24 q 81 -112 6 -202 q -68 -292 -68 -386 q -68 -440 -45 -472 q -22 -503 16 -503 z"},".":{"x_min":0,"x_max":163,"ha":163,"o":"m 78 94 q 98 94 112 80 q 126 66 126 46 q 126 26 112 12 q 98 -2 78 -2 q 58 -2 44 12 q 30 26 30 46 q 30 66 44 80 q 58 94 78 94 z"},"p":{"x_min":0,"x_max":498,"ha":498,"o":"m 250 392 q 229 392 205 368 q 181 343 158 306 q 135 269 116 226 q 98 184 87 148 q 85 124 80 82 q 75 41 68 -10 q 60 -62 48 -120 q 37 -177 22 -234 q 8 -290 -11 -341 q -30 -392 -53 -432 q -76 -471 -104 -494 q -131 -517 -164 -517 q -196 -517 -217 -492 q -238 -468 -238 -414 q -238 -376 -227 -332 q -216 -288 -198 -242 q -180 -195 -157 -148 q -134 -102 -109 -60 q -84 -17 -60 19 q -36 55 -15 81 q -11 128 -8 169 q -4 210 0 250 q 3 290 7 331 q 11 372 16 419 q 18 432 36 438 q 53 445 73 445 q 90 445 102 440 q 115 434 115 425 q 115 423 115 422 q 107 376 102 334 q 98 293 95 252 q 112 287 132 318 q 153 350 176 374 q 198 399 221 414 q 244 428 265 428 q 307 428 333 404 q 359 381 370 348 q 380 314 380 277 q 380 270 378 243 q 377 216 362 171 q 408 176 440 196 q 472 216 498 264 q 501 268 512 268 q 517 268 521 267 q 525 266 527 264 q 511 233 494 210 q 477 188 456 174 q 435 159 409 152 q 383 144 351 142 q 338 114 320 88 q 303 62 282 42 q 260 23 235 12 q 210 0 183 0 q 148 0 130 20 q 111 39 111 65 q 111 95 126 115 q 141 135 164 148 q 188 160 215 166 q 242 171 266 171 q 278 209 284 244 q 289 280 289 307 q 289 314 288 333 q 287 352 278 372 q 269 392 250 392 z m 257 143 q 241 143 220 138 q 200 134 182 125 q 164 116 152 102 q 139 87 139 66 q 139 51 147 42 q 155 33 167 33 q 180 33 192 42 q 205 52 217 68 q 229 84 239 104 q 249 123 257 143 z m -171 -483 q -148 -483 -128 -450 q -108 -417 -92 -366 q -76 -315 -64 -254 q -51 -193 -42 -136 q -33 -80 -28 -36 q -23 8 -21 25 q -47 -13 -80 -66 q -112 -120 -141 -180 q -170 -239 -190 -298 q -210 -358 -210 -408 q -210 -446 -199 -464 q -188 -483 -171 -483 z"},"X":{"x_min":0,"x_max":1139,"ha":1139,"o":"m 1240 -172 q 1245 -172 1247 -176 q 1249 -179 1249 -183 q 1249 -184 1248 -186 q 1248 -189 1246 -192 q 1243 -196 1238 -196 q 1162 -191 1103 -165 q 1044 -139 998 -98 q 953 -57 920 -4 q 887 48 864 108 q 842 167 828 230 q 813 292 805 352 q 765 265 719 188 q 673 111 616 54 q 559 -4 490 -38 q 421 -71 335 -71 q 248 -71 190 -36 q 133 -2 110 50 q 87 102 87 158 q 87 174 92 220 q 96 266 137 349 q 140 353 146 353 q 152 353 157 350 q 162 346 162 342 q 162 341 161 339 q 124 261 120 218 q 115 175 115 159 q 115 109 135 62 q 155 16 206 -15 q 258 -46 337 -46 q 421 -46 489 -10 q 557 25 612 86 q 668 147 714 228 q 759 308 799 399 q 792 459 790 514 q 787 568 785 624 q 777 804 760 921 q 743 1038 711 1107 q 679 1176 628 1203 q 577 1230 500 1230 q 421 1230 356 1207 q 290 1184 237 1144 q 184 1105 144 1053 q 105 1001 78 944 q 52 886 39 827 q 26 768 26 714 q 26 669 38 630 q 49 591 72 562 q 94 533 128 516 q 161 500 204 500 q 252 500 301 524 q 350 547 390 592 q 429 637 454 702 q 480 767 480 850 q 480 874 474 894 q 468 913 452 919 q 448 921 448 925 q 448 927 450 932 q 452 937 458 937 q 459 937 461 937 q 471 935 484 922 q 497 910 509 889 q 521 868 530 840 q 538 811 538 777 q 538 703 510 644 q 483 585 438 544 q 394 504 339 482 q 284 461 229 461 q 171 461 128 482 q 85 502 56 538 q 28 574 14 622 q 0 670 0 725 q 0 783 16 845 q 31 907 60 966 q 90 1026 134 1079 q 177 1132 234 1172 q 290 1212 359 1236 q 428 1259 509 1259 q 686 1259 776 1134 q 866 1009 879 742 q 881 705 881 672 q 881 638 882 603 q 911 679 940 752 q 969 826 1000 892 q 1031 959 1064 1016 q 1098 1072 1137 1113 q 1176 1154 1221 1178 q 1266 1201 1320 1201 q 1395 1201 1436 1152 q 1476 1102 1476 1009 q 1475 1001 1465 1001 q 1460 1001 1456 1004 q 1452 1006 1452 1011 q 1447 1176 1318 1176 q 1265 1176 1220 1150 q 1176 1125 1138 1080 q 1100 1036 1067 976 q 1034 915 1004 844 q 973 773 944 695 q 914 617 883 538 q 884 460 888 378 q 891 297 903 220 q 915 144 938 75 q 961 6 1000 -46 q 1040 -99 1098 -132 q 1157 -166 1240 -172 z"},"*":{"x_min":0,"x_max":351,"ha":351,"o":"m 279 938 q 282 939 284 939 q 289 939 294 934 q 298 930 300 924 q 301 918 301 914 q 301 911 300 906 q 299 901 293 899 l 231 886 l 278 846 q 282 843 282 838 q 282 837 282 834 q 281 830 278 825 q 274 820 268 816 q 263 812 258 812 q 254 812 251 815 l 206 866 l 194 805 q 193 800 188 798 q 184 795 178 795 q 168 795 160 800 q 152 805 152 810 q 152 812 153 814 l 172 869 l 119 850 q 117 849 114 849 q 110 849 105 854 q 100 858 98 864 q 97 871 97 875 q 97 878 98 884 q 99 889 105 890 l 167 903 l 121 942 q 117 946 117 951 q 117 952 118 956 q 119 961 124 967 q 129 973 134 975 q 139 977 141 977 q 145 977 147 974 l 187 928 l 198 989 q 201 1000 214 1000 q 224 1000 232 995 q 239 990 239 985 q 239 983 238 981 l 217 916 z"},"Y":{"x_min":0,"x_max":1242,"ha":1242,"o":"m 1036 399 q 1007 351 982 314 q 958 277 936 248 q 914 219 893 196 q 872 174 850 156 q 804 118 756 98 q 709 77 667 77 q 614 77 581 94 q 548 112 530 140 q 511 169 505 202 q 499 235 499 265 q 499 272 500 294 q 501 316 508 351 q 514 386 521 412 q 531 448 548 501 q 565 554 584 616 q 602 678 619 746 q 636 813 645 874 q 654 934 654 985 q 654 994 653 1027 q 652 1060 634 1104 q 615 1148 577 1174 q 539 1200 475 1200 q 411 1200 352 1174 q 294 1147 244 1102 q 194 1057 154 998 q 113 940 85 876 q 57 812 42 748 q 28 685 28 630 q 28 627 28 623 q 28 578 38 540 q 49 501 70 472 q 92 444 125 428 q 158 412 203 412 q 254 412 304 446 q 355 480 395 536 q 435 591 460 661 q 485 731 485 803 q 485 835 474 858 q 463 880 434 886 q 430 887 430 890 q 429 892 429 893 q 429 895 430 898 q 430 900 432 902 q 435 904 438 904 q 439 904 440 904 q 491 896 514 851 q 538 806 538 744 q 538 666 516 598 q 493 531 454 480 q 415 430 362 401 q 308 372 247 372 q 183 372 136 392 q 90 411 60 444 q 31 478 16 524 q 2 570 1 623 q 1 627 1 630 q 1 690 17 757 q 33 824 64 891 q 95 958 139 1018 q 183 1079 236 1125 q 290 1171 352 1198 q 414 1225 480 1225 q 551 1225 598 1198 q 644 1172 672 1128 q 699 1084 710 1028 q 720 972 720 913 q 720 910 720 878 q 719 845 710 782 q 702 720 691 666 q 680 612 669 571 q 658 530 653 511 q 644 477 631 434 q 618 391 607 346 q 596 302 592 272 q 589 242 589 226 q 589 203 594 176 q 600 150 623 130 q 646 110 690 110 q 725 110 766 129 q 807 148 847 183 q 892 221 938 284 q 985 348 1043 448 q 1054 525 1067 599 q 1080 673 1096 742 q 1115 821 1144 891 q 1173 961 1206 1013 q 1238 1065 1272 1095 q 1305 1125 1333 1125 q 1364 1125 1364 1079 q 1364 1047 1352 1002 q 1340 957 1320 906 q 1300 854 1276 800 q 1251 745 1226 695 q 1202 645 1180 603 q 1157 561 1141 533 q 1129 430 1114 322 q 1100 215 1077 114 q 1054 13 1020 -76 q 986 -165 934 -232 q 882 -299 810 -338 q 737 -376 638 -376 q 591 -376 549 -363 q 507 -350 476 -324 q 444 -297 426 -258 q 409 -219 409 -170 q 409 -167 409 -164 q 409 -157 412 -153 q 416 -149 421 -149 q 432 -149 432 -162 q 432 -165 432 -168 q 432 -210 445 -244 q 458 -278 483 -302 q 508 -326 541 -338 q 574 -350 612 -350 q 689 -350 747 -320 q 805 -291 848 -238 q 890 -186 920 -115 q 949 -44 970 40 q 992 123 1007 214 q 1022 306 1036 399 z m 1223 971 q 1194 902 1178 800 q 1161 699 1147 580 q 1170 621 1194 666 q 1218 712 1240 759 q 1263 806 1282 852 q 1302 899 1317 941 q 1338 1002 1338 1042 q 1338 1047 1336 1070 q 1335 1094 1314 1094 q 1297 1094 1274 1066 q 1250 1037 1223 971 z"},"c":{"x_min":0,"x_max":395,"ha":395,"o":"m 395 264 q 396 268 409 268 q 415 268 420 267 q 424 266 424 265 q 424 264 424 264 q 408 219 380 172 q 351 125 314 86 q 276 48 231 24 q 186 0 135 0 q 96 0 68 14 q 40 29 22 53 q 4 77 -4 109 q -13 141 -13 176 q -13 222 1 268 q 15 315 42 352 q 69 390 107 414 q 145 437 193 437 q 218 437 236 426 q 254 414 262 398 q 269 382 269 366 q 269 362 268 350 q 267 338 251 320 q 245 313 236 313 q 225 313 220 320 q 215 327 215 331 q 215 337 219 342 q 236 364 236 379 q 236 384 232 395 q 228 406 205 406 q 179 406 156 384 q 134 362 118 328 q 101 294 91 252 q 81 211 81 172 q 81 145 86 120 q 91 96 102 78 q 112 59 128 48 q 145 38 168 38 q 204 38 240 62 q 277 86 308 120 q 339 155 362 194 q 385 234 395 264 z"},"!":{"x_min":0,"x_max":264,"ha":264,"o":"m 132 174 q 132 168 126 168 q 121 167 119 167 q 112 167 111 172 q 104 217 100 275 q 95 333 92 398 q 90 463 90 532 q 90 600 92 664 q 95 729 100 786 q 105 844 112 887 q 114 898 124 903 q 133 908 146 908 q 163 908 178 900 q 193 891 193 877 q 193 876 193 874 q 180 800 168 711 q 157 622 149 528 q 141 435 136 344 q 132 252 132 174 z m 132 96 q 152 96 166 82 q 180 68 180 48 q 180 28 166 14 q 152 0 132 0 q 112 0 98 14 q 84 28 84 48 q 84 68 98 82 q 112 96 132 96 z"},"/":{"x_min":0,"x_max":249,"ha":249,"o":"m 78 2 q 78 -4 72 -4 q 67 -5 65 -5 q 58 -5 57 0 q 54 31 54 77 q 54 94 55 140 q 56 186 62 276 q 68 365 78 464 q 87 564 99 660 q 111 755 124 840 q 138 924 152 984 q 154 995 164 1000 q 173 1005 186 1005 q 203 1005 218 996 q 233 988 233 974 q 233 973 233 971 q 214 902 196 816 q 177 731 160 639 q 142 547 127 454 q 112 360 101 275 q 90 190 84 120 q 78 49 78 2 z"},"6":{"x_min":0,"x_max":554,"ha":554,"o":"m 115 400 q 130 427 152 450 q 175 472 202 489 q 230 506 262 516 q 294 525 327 525 q 395 525 440 486 q 485 447 504 393 q 524 339 524 283 q 524 272 522 232 q 519 193 490 134 q 461 76 406 37 q 351 -2 269 -2 q 200 -2 154 28 q 109 59 82 106 q 55 152 44 208 q 32 264 31 315 q 31 320 31 324 q 31 395 46 474 q 60 553 94 629 q 128 705 182 769 q 235 833 309 872 q 321 878 337 885 q 353 892 370 898 q 388 904 406 908 q 423 911 438 911 q 443 911 445 908 q 447 904 447 900 q 447 898 446 895 q 445 892 441 891 q 417 886 396 881 q 375 876 353 865 q 290 835 247 782 q 204 730 176 666 q 149 603 135 534 q 121 464 115 400 z m 111 338 l 111 336 q 110 322 110 310 l 110 309 q 110 308 110 307 l 110 304 q 110 303 110 302 l 110 287 q 110 287 110 286 l 110 283 q 111 262 114 234 q 118 206 126 176 q 134 147 146 119 q 159 91 177 69 q 195 47 218 34 q 242 20 272 20 q 312 20 344 40 q 375 61 397 94 q 419 128 432 170 q 444 213 446 241 q 447 269 447 280 q 447 314 440 351 q 434 388 416 422 q 397 455 368 476 q 338 496 297 496 q 261 496 232 482 q 203 467 180 444 q 157 422 140 394 q 123 366 111 338 z"},"r":{"x_min":0,"x_max":369,"ha":369,"o":"m 369 264 q 370 268 383 268 q 388 268 393 267 q 398 266 398 265 q 398 264 398 264 q 391 244 382 216 q 372 189 359 160 q 346 130 330 102 q 314 73 294 50 q 275 28 252 14 q 229 0 202 0 q 171 0 151 14 q 131 28 119 52 q 107 76 102 107 q 98 138 98 172 q 98 230 106 287 q 115 344 123 381 q 85 389 59 399 q 54 364 46 328 q 37 293 29 264 q 28 263 24 262 q 19 262 14 262 q 9 262 4 262 q 0 263 0 264 q 10 296 19 334 q 28 372 32 410 q 0 424 -14 438 q -28 453 -28 476 q -28 496 -16 508 q -5 521 12 521 q 41 521 52 502 q 63 484 63 450 q 63 440 62 427 q 89 417 122 410 q 155 403 184 401 q 218 398 218 375 q 218 370 217 365 q 212 342 206 312 q 200 283 196 251 q 191 219 188 186 q 185 154 185 126 q 185 86 192 60 q 200 35 220 35 q 244 35 268 64 q 293 93 314 132 q 334 170 349 208 q 364 246 369 264 z"},"2":{"x_min":0,"x_max":622,"ha":622,"o":"m 458 652 q 458 762 418 823 q 377 884 304 884 q 267 884 234 868 q 202 853 178 826 q 154 800 140 765 q 126 730 126 690 q 126 682 122 678 q 117 675 111 675 q 106 675 101 678 q 96 682 96 690 q 96 739 114 779 q 131 819 161 848 q 191 877 232 893 q 274 909 322 909 q 372 909 412 892 q 453 874 482 841 q 510 808 526 761 q 541 714 541 656 q 541 593 523 522 q 505 450 472 378 q 439 305 393 235 q 347 165 292 104 q 324 92 349 80 q 374 69 396 60 q 417 51 436 46 q 456 40 477 40 q 500 40 524 47 q 548 54 580 71 q 581 71 582 71 q 583 71 586 70 q 588 69 590 66 q 591 64 592 62 q 592 61 592 61 q 592 59 590 58 q 555 28 516 14 q 478 1 438 1 q 390 1 342 16 q 294 32 249 56 q 221 31 190 17 q 159 3 124 3 q 75 3 52 22 q 30 42 30 66 q 31 93 58 116 q 85 140 140 140 q 172 140 204 132 q 237 124 271 112 q 309 156 342 220 q 376 284 402 358 q 428 431 443 508 q 458 584 458 652 z m 231 67 q 193 87 162 100 q 131 113 106 113 q 80 113 65 98 q 50 84 50 67 q 50 50 66 37 q 82 24 117 24 q 151 24 180 36 q 208 47 231 67 z"},"9":{"x_min":0,"x_max":555,"ha":555,"o":"m 440 509 q 424 482 401 460 q 378 437 350 420 q 322 403 290 394 q 258 384 224 384 q 156 384 111 423 q 66 462 48 514 q 31 567 31 620 q 31 634 34 675 q 37 716 68 774 q 98 833 154 872 q 210 911 293 911 q 362 911 407 880 q 452 850 478 804 q 504 757 514 701 q 525 645 525 594 q 525 519 508 438 q 491 356 456 280 q 420 204 366 140 q 311 76 236 37 q 223 30 206 23 q 190 16 172 10 q 155 5 138 2 q 120 -2 105 -2 q 100 -2 98 2 q 96 5 96 9 q 96 11 97 14 q 98 17 101 18 q 126 23 148 28 q 169 33 191 44 q 255 74 300 126 q 344 179 373 242 q 402 306 418 376 q 433 445 440 509 z m 445 573 q 446 587 446 600 q 447 612 447 626 q 447 648 444 676 q 440 703 432 732 q 425 762 413 790 q 401 818 384 840 q 366 862 342 876 q 318 889 288 889 q 248 889 216 868 q 184 848 161 814 q 138 781 125 738 q 112 696 110 666 q 107 636 107 621 q 107 592 113 556 q 119 521 137 488 q 155 454 184 434 q 214 413 255 413 q 291 413 320 428 q 350 442 374 464 q 397 487 415 516 q 433 545 445 573 z"}," ":{"x_min":0,"x_max":250,"ha":250,"o":""},"I":{"x_min":0,"x_max":794,"ha":794,"o":"m 325 65 q 334 61 336 56 q 338 51 338 48 q 338 45 336 41 q 334 37 330 36 q 325 34 322 34 q 318 34 313 36 q 285 49 257 56 q 229 64 199 64 q 146 64 117 42 q 88 20 86 5 q 85 -10 85 -13 q 85 -36 108 -57 q 130 -78 182 -78 q 231 -78 270 -58 q 310 -37 343 0 q 376 36 402 84 q 429 133 450 189 q 471 245 488 306 q 504 366 517 426 q 481 417 444 412 q 406 407 368 407 q 297 407 230 424 q 164 442 113 478 q 62 515 31 570 q 0 625 0 700 q 0 754 16 803 q 33 852 62 894 q 90 937 130 972 q 169 1008 215 1035 q 261 1062 312 1082 q 363 1101 416 1116 q 468 1131 521 1144 q 574 1158 625 1173 q 658 1183 680 1193 q 702 1203 720 1214 q 739 1226 757 1240 q 775 1254 800 1272 q 804 1275 808 1275 q 810 1275 814 1274 q 817 1273 820 1269 q 824 1265 824 1259 q 824 1253 818 1248 q 800 1234 784 1217 q 769 1200 758 1181 q 732 1137 714 1068 q 697 1000 683 920 q 738 901 774 857 q 809 813 809 736 q 809 689 795 648 q 781 607 756 572 q 730 538 695 510 q 660 483 619 463 q 609 413 592 351 q 575 289 550 226 q 525 162 491 102 q 457 42 413 -4 q 369 -51 314 -80 q 258 -108 191 -108 q 141 -108 110 -93 q 78 -78 65 -57 q 52 -36 52 -13 q 52 -10 53 4 q 54 19 72 42 q 89 64 122 79 q 154 94 199 94 q 233 94 264 86 q 295 78 325 65 z m 522 448 q 538 523 550 590 q 562 658 573 707 q 583 752 594 804 q 606 856 620 913 q 600 916 587 916 q 574 917 570 917 q 551 917 534 914 q 532 914 530 914 q 525 914 522 916 q 518 919 518 923 q 518 927 522 931 q 525 935 532 935 q 556 937 579 937 q 602 937 626 934 q 645 1003 669 1068 q 693 1134 725 1186 q 659 1160 586 1142 q 513 1123 443 1101 q 367 1077 302 1042 q 238 1006 192 955 q 145 904 118 836 q 92 768 92 681 q 92 615 116 568 q 141 520 182 490 q 222 459 275 444 q 328 429 386 429 q 420 429 454 434 q 489 438 522 448 z m 624 490 q 659 510 689 536 q 719 561 740 592 q 762 624 774 660 q 786 697 786 738 q 786 804 757 842 q 728 881 680 899 q 671 844 664 788 q 656 732 650 678 q 643 625 637 577 q 631 529 624 490 z"},"H":{"x_min":0,"x_max":1227,"ha":1227,"o":"m 346 65 q 355 61 357 56 q 359 51 359 48 q 359 45 357 41 q 355 37 350 36 q 346 34 343 34 q 339 34 334 36 q 306 49 278 56 q 250 64 220 64 q 167 64 138 42 q 109 20 108 5 q 106 -10 106 -13 q 106 -36 128 -57 q 151 -78 203 -78 q 271 -78 323 -38 q 375 2 414 67 q 452 132 480 214 q 508 296 528 381 q 519 381 509 381 q 490 381 464 382 q 437 384 412 395 q 388 406 377 425 q 366 444 366 467 q 366 478 368 492 q 369 497 372 498 q 376 500 381 500 q 388 500 393 497 q 398 494 398 490 q 398 489 398 488 q 396 477 396 467 q 396 446 406 431 q 415 416 435 408 q 455 401 472 400 q 490 400 499 400 q 516 400 533 401 q 553 489 568 570 q 582 650 594 707 q 605 758 619 820 q 633 882 651 946 q 669 1011 692 1073 q 715 1135 745 1184 q 716 1161 680 1148 q 645 1136 593 1136 q 560 1136 528 1140 q 497 1144 466 1150 q 436 1155 408 1159 q 380 1163 355 1163 q 289 1163 239 1131 q 189 1099 156 1049 q 122 999 106 939 q 89 879 89 823 q 89 794 94 766 q 100 738 114 714 q 128 691 152 675 q 177 659 215 654 q 224 653 224 644 q 224 633 213 633 q 166 633 126 654 q 87 675 59 710 q 31 745 16 790 q 0 836 0 885 q 0 945 24 1002 q 48 1058 92 1101 q 136 1144 197 1170 q 258 1196 331 1196 q 367 1196 401 1190 q 435 1185 468 1178 q 502 1171 534 1166 q 567 1160 600 1160 q 643 1160 672 1168 q 701 1177 724 1192 q 748 1207 770 1228 q 792 1248 821 1272 q 825 1275 829 1275 q 831 1275 834 1274 q 838 1273 842 1269 q 845 1265 845 1259 q 845 1253 839 1248 q 821 1234 806 1217 q 790 1200 779 1181 q 759 1146 743 1093 q 727 1040 714 978 q 702 916 692 848 q 683 780 675 714 q 667 649 660 590 q 652 530 644 485 q 641 468 637 450 q 633 431 628 411 q 713 424 798 436 q 883 449 968 451 q 986 536 1010 622 q 1033 709 1058 793 q 1083 877 1107 957 q 1131 1037 1151 1110 q 1155 1123 1160 1148 q 1166 1172 1166 1186 q 1167 1200 1167 1203 q 1167 1225 1160 1244 q 1154 1264 1133 1270 q 1130 1271 1130 1274 q 1130 1276 1131 1279 q 1132 1282 1137 1282 q 1207 1282 1222 1244 q 1238 1207 1238 1170 q 1238 1131 1226 1077 q 1215 1025 1200 974 q 1185 922 1171 871 q 1145 776 1116 666 q 1087 557 1064 444 q 1095 438 1120 426 q 1146 415 1165 395 q 1168 391 1168 388 q 1168 386 1166 382 q 1163 378 1158 378 q 1154 378 1151 381 q 1119 414 1060 425 q 1042 336 1031 251 q 1020 166 1020 90 q 1020 69 1022 40 q 1025 10 1032 -20 q 1039 -49 1052 -74 q 1066 -98 1088 -110 q 1093 -113 1094 -116 q 1094 -120 1094 -121 q 1094 -126 1089 -128 q 1062 -141 1036 -141 q 999 -141 976 -114 q 954 -86 942 -48 q 931 -9 928 32 q 924 73 924 100 q 924 177 935 260 q 946 343 964 431 q 877 429 792 414 q 708 400 623 389 q 610 337 591 280 q 572 223 546 168 q 521 113 488 63 q 455 13 414 -25 q 372 -63 322 -86 q 272 -108 212 -108 q 162 -108 130 -93 q 99 -78 86 -57 q 73 -36 73 -13 q 73 -10 74 4 q 75 19 92 42 q 110 64 142 79 q 175 94 220 94 q 254 94 285 86 q 316 78 346 65 z"},"4":{"x_min":0,"x_max":557,"ha":557,"o":"m 516 897 q 502 867 490 822 q 477 777 466 724 q 456 670 448 610 q 439 551 432 490 q 426 430 421 372 q 416 314 413 264 l 516 264 q 526 264 526 254 q 526 244 516 244 l 412 244 q 410 206 409 176 q 408 145 408 124 l 408 123 q 408 120 408 118 l 408 116 q 408 115 408 114 l 408 111 q 408 110 408 108 l 408 105 q 408 104 408 103 l 408 100 q 408 99 408 98 l 408 76 q 408 51 410 27 q 410 13 397 6 q 384 0 369 0 q 353 0 340 6 q 328 13 328 27 l 328 38 l 327 59 q 327 106 330 152 q 332 197 336 244 l 52 244 q 34 244 32 250 q 31 256 31 258 q 31 267 40 276 q 61 297 96 340 q 130 383 172 438 q 214 494 260 556 q 305 619 347 678 q 389 738 424 790 q 458 843 478 877 q 483 885 487 892 q 491 900 496 908 q 497 912 503 912 q 508 912 512 908 q 517 904 517 900 q 517 899 516 897 z m 338 264 q 344 323 353 387 q 362 451 374 515 q 385 579 400 641 q 414 703 432 757 q 416 733 388 692 q 360 652 326 604 q 293 556 256 505 q 220 454 186 407 q 151 360 122 322 q 93 285 74 264 z"},"~":{"x_min":0,"x_max":337,"ha":337,"o":"m 291 307 q 293 309 296 309 q 299 309 302 306 q 306 303 306 299 q 306 294 301 286 q 286 264 268 252 q 250 240 224 240 q 209 240 192 243 q 192 243 191 243 l 190 243 q 190 243 190 243 l 189 244 q 189 244 188 244 l 187 244 q 187 244 187 244 l 186 244 q 185 244 185 244 l 184 244 q 183 245 183 245 l 182 245 q 182 245 182 245 l 180 245 q 180 245 180 245 l 179 245 q 178 245 178 245 l 177 246 q 177 246 176 246 l 175 246 q 175 246 175 246 l 174 246 q 173 246 173 246 l 172 247 q 172 247 171 247 l 170 247 q 170 247 170 247 l 168 247 q 168 247 168 247 l 167 247 q 167 247 166 248 l 165 248 q 165 248 164 248 l 163 248 q 163 248 163 248 l 162 248 q 161 248 161 248 l 160 249 q 160 249 160 249 l 159 249 q 158 249 158 249 q 141 252 125 254 q 109 257 95 257 q 72 256 48 238 q 46 237 42 237 q 38 237 36 240 q 33 242 33 247 q 33 252 38 259 q 53 282 71 294 q 89 306 116 306 q 147 306 180 298 q 213 289 238 289 q 241 289 244 289 q 258 289 269 294 q 280 299 291 307 z"},"D":{"x_min":0,"x_max":1289,"ha":1289,"o":"m 368 40 q 399 84 423 140 q 447 195 466 256 q 485 317 500 380 q 514 443 526 502 q 538 562 548 614 q 557 667 566 707 q 577 757 590 818 q 604 879 622 942 q 639 1006 662 1068 q 684 1129 713 1178 q 687 1183 660 1186 q 632 1188 603 1188 q 497 1188 408 1158 q 319 1129 250 1080 q 180 1031 132 968 q 83 906 58 841 q 31 772 31 711 q 31 708 32 674 q 33 641 56 594 q 80 547 122 520 q 163 494 215 494 q 265 494 309 515 q 353 536 386 572 q 420 609 440 658 q 459 706 459 761 q 459 795 446 821 q 433 847 404 860 q 402 863 402 866 q 402 869 405 875 q 408 881 414 881 q 415 881 416 881 q 466 861 490 820 q 514 778 514 727 q 514 671 493 622 q 472 574 436 538 q 399 502 350 482 q 300 461 242 461 q 176 461 122 492 q 67 522 36 576 q 4 630 2 670 q 0 710 0 717 q 0 785 33 862 q 62 929 114 992 q 167 1055 241 1104 q 315 1153 410 1182 q 505 1212 618 1212 q 647 1212 675 1210 q 703 1209 729 1204 q 759 1248 793 1272 q 797 1275 801 1275 q 803 1275 806 1274 q 810 1273 814 1269 q 817 1265 817 1259 q 817 1253 811 1248 q 797 1237 784 1224 q 772 1212 762 1198 q 888 1171 976 1100 q 1065 1030 1118 932 q 1171 835 1188 740 q 1204 646 1204 571 q 1204 530 1196 452 q 1189 373 1150 264 q 1111 156 1046 72 q 981 -11 892 -62 q 803 -112 693 -112 q 647 -112 606 -103 q 566 -94 530 -80 q 494 -66 462 -48 q 429 -31 398 -13 q 354 -56 302 -82 q 249 -108 184 -108 q 134 -108 102 -93 q 71 -78 58 -57 q 45 -36 45 -13 q 45 -10 46 4 q 47 19 64 42 q 82 64 114 79 q 147 94 192 94 q 240 94 283 78 q 326 63 368 40 z m 668 -72 q 762 -72 840 -24 q 917 23 975 102 q 1033 180 1070 282 q 1107 384 1116 463 q 1124 542 1124 590 q 1124 651 1112 736 q 1101 821 1056 914 q 1011 1007 934 1075 q 858 1143 746 1171 q 727 1134 712 1081 q 696 1028 684 966 q 673 905 664 839 q 654 773 646 709 q 638 645 631 588 q 624 530 616 485 q 607 437 592 376 q 577 314 553 250 q 529 185 496 123 q 464 61 421 11 q 449 -5 478 -20 q 506 -35 536 -46 q 566 -58 599 -65 q 632 -72 668 -72 z m 349 14 q 310 35 272 50 q 234 64 192 64 q 139 64 110 42 q 81 20 80 5 q 78 -10 78 -13 q 78 -36 100 -57 q 123 -78 175 -78 q 229 -78 272 -54 q 314 -29 349 14 z"},"^":{"x_min":0,"x_max":272,"ha":272,"o":"m 83 538 q 80 529 70 529 q 64 529 59 533 q 54 537 54 543 q 54 545 55 547 l 114 647 q 120 657 133 657 q 146 657 154 647 l 217 557 q 218 555 218 553 q 218 547 213 543 q 208 539 202 539 q 192 539 189 548 l 135 597 z"},"0":{"x_min":0,"x_max":590,"ha":590,"o":"m 324 909 q 388 909 434 870 q 481 831 510 767 q 538 703 548 632 q 559 560 559 496 q 559 475 556 422 q 554 369 534 287 q 514 205 478 141 q 443 77 393 38 q 343 -1 278 -1 q 211 -1 162 38 q 114 77 84 141 q 53 205 42 277 q 31 349 31 413 q 31 433 34 486 q 36 539 57 621 q 78 703 115 767 q 152 831 204 870 q 257 909 324 909 z m 334 884 q 288 884 250 848 q 213 811 186 751 q 159 691 143 614 q 127 537 124 482 q 121 428 121 400 q 121 349 128 286 q 134 223 156 163 q 177 103 212 66 q 247 30 297 30 q 351 30 392 66 q 433 103 462 163 q 490 223 506 300 q 522 377 524 426 q 526 475 526 492 q 526 554 516 622 q 507 691 484 751 q 460 811 422 848 q 385 884 334 884 z"},"F":{"x_min":0,"x_max":907,"ha":907,"o":"m 226 498 q 257 526 285 544 q 313 563 344 574 q 374 586 409 591 q 444 596 487 596 q 510 596 534 594 q 558 593 581 591 q 590 639 598 683 q 607 727 615 766 q 621 792 630 832 q 638 871 650 918 q 663 965 680 1016 q 696 1066 718 1112 q 692 1114 668 1115 q 643 1116 619 1116 q 491 1116 392 1090 q 294 1063 222 1019 q 151 975 107 918 q 63 861 46 808 q 30 754 30 708 q 30 693 34 656 q 37 619 66 569 q 96 519 148 484 q 200 448 273 437 q 277 437 279 434 q 281 430 281 426 q 281 425 280 422 q 280 419 278 416 q 275 412 270 412 q 269 412 268 412 q 169 427 106 478 q 43 530 22 590 q 0 650 0 704 q 0 730 8 786 q 17 842 68 921 q 120 1000 211 1066 q 302 1131 433 1166 q 511 1187 574 1190 q 637 1193 679 1193 q 721 1193 763 1191 q 792 1235 828 1262 q 832 1265 836 1265 q 838 1265 842 1264 q 845 1263 848 1259 q 852 1255 852 1249 q 852 1243 846 1238 q 817 1216 798 1189 q 892 1183 976 1174 q 1061 1165 1128 1165 q 1173 1165 1206 1171 q 1240 1177 1261 1193 q 1264 1195 1267 1195 q 1271 1195 1275 1190 q 1279 1186 1279 1181 q 1279 1179 1277 1176 q 1253 1152 1218 1137 q 1184 1122 1142 1113 q 1101 1104 1056 1100 q 1010 1097 964 1097 q 906 1097 852 1100 q 799 1104 758 1108 q 740 1057 727 992 q 714 927 704 856 q 693 786 684 716 q 675 645 667 582 q 692 580 716 578 q 739 576 762 576 q 767 591 776 608 q 784 626 796 641 q 807 656 822 666 q 837 676 856 676 q 872 676 883 667 q 894 658 896 649 q 898 640 898 635 q 898 626 893 612 q 888 599 868 585 q 839 563 781 557 q 774 534 770 512 q 765 491 761 477 q 758 470 750 470 q 744 470 740 473 q 735 476 735 480 q 735 481 736 483 q 740 496 744 515 q 749 534 755 556 q 735 556 712 558 q 689 560 664 563 q 660 537 657 514 q 654 490 650 470 q 642 422 626 360 q 610 298 586 232 q 561 167 527 104 q 493 41 448 -8 q 403 -57 346 -88 q 289 -118 219 -118 q 169 -118 138 -103 q 106 -88 93 -67 q 80 -46 80 -23 q 80 -20 81 -6 q 82 9 100 32 q 117 54 150 69 q 182 84 227 84 q 294 84 354 55 q 360 52 362 48 q 363 43 363 40 q 363 37 361 32 q 359 28 355 26 q 351 24 348 24 q 344 24 340 26 q 311 37 284 46 q 257 54 227 54 q 174 54 145 32 q 116 10 114 -5 q 113 -20 113 -23 q 113 -46 136 -67 q 158 -88 210 -88 q 267 -88 312 -60 q 358 -31 394 18 q 430 66 458 131 q 485 196 507 270 q 529 343 546 420 q 563 498 577 572 q 556 574 533 575 q 510 576 487 576 q 445 576 412 572 q 379 567 350 556 q 322 546 296 528 q 269 510 240 484 q 237 481 233 481 q 233 481 230 482 q 228 482 226 484 q 223 487 222 489 q 222 491 222 492 q 222 495 226 498 z"},"`":{"x_min":0,"x_max":257,"ha":257,"o":"m 84 656 q 84 658 84 659 q 84 665 90 670 q 97 674 106 674 q 120 674 124 664 l 176 543 q 177 540 177 538 q 177 533 172 529 q 168 525 162 525 q 153 525 148 534 z"},"k":{"x_min":0,"x_max":475,"ha":475,"o":"m 92 14 q 90 6 82 3 q 74 0 62 0 q 52 0 41 2 q 30 5 20 9 q 11 13 5 19 q -1 25 -2 32 q -5 70 -5 131 q -4 201 2 292 q 9 382 22 478 q 36 573 56 664 q 77 756 105 828 q 133 899 170 944 q 206 988 251 988 q 283 988 306 963 q 329 938 329 884 q 329 848 318 804 q 306 761 288 715 q 269 669 245 622 q 221 575 196 532 q 171 489 146 452 q 121 415 101 389 q 95 327 92 265 q 90 203 90 141 q 100 171 118 220 q 136 268 162 314 q 188 361 222 394 q 255 428 297 428 q 324 428 342 412 q 360 395 360 366 q 360 365 360 363 q 360 335 346 308 q 333 281 312 258 q 290 236 264 220 q 238 204 212 198 q 237 188 250 162 q 263 135 272 107 q 282 79 292 57 q 302 35 321 35 q 339 35 356 48 q 373 62 388 83 q 404 104 418 130 q 432 156 443 182 q 454 207 462 229 q 471 251 475 264 q 476 268 489 268 q 494 268 499 267 q 504 266 504 265 q 504 264 504 264 q 494 232 476 186 q 459 141 434 100 q 409 58 376 28 q 344 -1 303 -1 q 269 -1 248 10 q 227 22 214 40 q 201 58 194 80 q 187 102 180 122 q 173 143 163 160 q 153 177 136 184 q 118 134 106 88 q 94 41 92 14 z m 256 956 q 233 956 214 923 q 194 890 178 839 q 162 788 150 726 q 137 664 128 608 q 119 551 114 506 q 109 462 107 445 q 124 469 144 502 q 165 535 186 573 q 208 611 228 652 q 249 693 265 734 q 281 774 291 811 q 301 848 301 879 q 301 917 287 936 q 273 956 256 956 z m 150 221 q 174 226 200 239 q 227 252 250 271 q 272 290 286 314 q 301 339 301 366 q 301 394 279 394 q 259 394 238 372 q 218 351 200 322 q 182 293 169 264 q 156 235 150 221 z"},"u":{"x_min":0,"x_max":518,"ha":518,"o":"m 518 264 q 518 266 522 267 q 526 268 531 268 q 537 268 542 267 q 547 266 547 265 q 547 264 547 264 q 541 244 531 216 q 521 189 508 160 q 495 130 478 102 q 462 73 442 50 q 423 28 400 14 q 376 0 350 0 q 319 0 298 13 q 278 26 266 50 q 253 73 248 104 q 242 135 242 169 q 194 0 107 0 q 74 0 53 16 q 32 33 20 60 q 8 88 3 124 q -2 159 -2 197 q -2 256 6 310 q 13 365 19 398 q 21 411 40 418 q 58 424 78 424 q 95 424 107 419 q 119 414 119 406 q 119 404 118 402 q 114 383 108 352 q 102 322 98 286 q 93 250 90 212 q 87 173 87 138 q 88 94 96 66 q 104 37 124 37 q 146 37 164 58 q 181 79 195 112 q 209 146 220 188 q 231 229 240 269 q 248 309 254 344 q 259 378 262 398 q 264 411 282 418 q 301 424 321 424 q 338 424 350 419 q 362 414 362 406 q 362 404 361 402 q 356 381 350 346 q 343 310 338 269 q 333 228 331 196 q 329 165 329 146 q 329 127 331 102 q 333 76 342 54 q 351 33 368 33 q 379 33 390 41 q 402 49 413 60 q 424 71 434 84 q 443 96 449 106 q 459 122 469 142 q 479 162 488 183 q 497 204 504 225 q 512 246 518 264 z"},"]":{"x_min":0,"x_max":325,"ha":325,"o":"m -34 -71 q -46 -71 -49 -66 q -52 -62 -52 -58 q -52 -56 -50 -52 q -49 -47 -42 -41 q -35 -35 -25 -35 q -24 -35 -23 -35 l -22 -35 q -21 -35 -21 -35 l -20 -35 q -19 -35 -18 -35 l -11 -35 q -11 -35 -10 -35 l -9 -35 q -9 -35 -8 -35 l 7 -35 q 21 -35 34 -34 q 46 -34 58 -34 q 70 -33 84 -32 q 91 8 102 76 q 112 145 124 231 q 137 317 150 416 q 164 515 176 616 q 188 718 199 816 q 210 915 218 1000 q 225 1086 228 1138 q 230 1191 230 1219 q 230 1243 229 1261 q 199 1263 175 1264 q 151 1264 114 1265 q 104 1265 97 1270 q 90 1276 88 1280 q 87 1285 87 1287 q 87 1291 90 1296 q 93 1300 105 1300 q 130 1300 150 1300 q 170 1299 188 1298 q 207 1298 224 1298 q 241 1297 260 1296 q 271 1296 286 1286 q 302 1276 303 1263 q 305 1240 305 1209 q 305 1183 303 1132 q 301 1081 294 994 q 287 908 278 808 q 268 709 256 608 q 244 506 232 408 q 219 309 207 222 q 195 136 184 68 q 174 0 166 -41 q 164 -55 148 -60 q 131 -65 117 -66 q 99 -67 82 -68 q 66 -69 48 -70 q 31 -70 11 -70 q -9 -71 -34 -71 z"},"U":{"x_min":0,"x_max":1255,"ha":1255,"o":"m 973 249 q 944 201 920 164 q 895 127 873 98 q 851 68 830 46 q 809 24 787 6 q 741 -32 694 -53 q 646 -74 603 -74 q 553 -74 525 -47 q 497 -20 485 22 q 473 65 473 117 q 473 169 480 220 q 487 271 497 315 q 507 359 514 384 q 527 431 547 492 q 567 553 588 622 q 609 690 628 762 q 646 833 656 896 q 665 959 665 1012 q 665 1020 664 1054 q 663 1088 644 1133 q 624 1178 584 1204 q 543 1230 475 1230 q 423 1230 369 1206 q 315 1182 265 1140 q 215 1098 172 1042 q 128 986 96 922 q 63 858 46 791 q 28 724 28 660 q 28 657 28 653 q 29 608 40 570 q 50 531 71 502 q 92 474 125 458 q 158 442 203 442 q 248 442 288 460 q 328 478 362 508 q 395 539 422 578 q 448 618 466 662 q 485 705 495 750 q 505 794 505 833 q 505 865 494 888 q 483 910 454 916 q 450 917 450 920 q 449 922 449 923 q 449 925 450 928 q 450 930 452 932 q 455 934 458 934 q 459 934 460 934 q 486 930 504 916 q 522 902 534 881 q 546 860 552 832 q 558 805 558 774 q 558 706 538 640 q 518 573 478 520 q 439 467 381 434 q 323 402 247 402 q 183 402 136 422 q 90 441 60 474 q 31 508 16 554 q 2 600 1 653 q 1 659 1 666 q 1 729 20 797 q 38 865 72 932 q 107 999 154 1058 q 201 1117 254 1160 q 308 1204 366 1230 q 424 1255 480 1255 q 555 1255 604 1228 q 653 1202 682 1158 q 710 1113 720 1058 q 731 1002 731 944 q 731 939 730 905 q 730 871 721 807 q 712 743 700 687 q 687 631 674 586 q 662 542 656 519 q 645 477 626 419 q 608 361 591 299 q 574 237 562 178 q 550 120 550 74 q 550 71 550 45 q 551 19 569 -10 q 587 -40 629 -40 q 662 -40 703 -21 q 744 -2 784 33 q 828 71 874 133 q 920 195 977 293 q 987 378 1003 475 q 1019 572 1042 668 q 1064 763 1093 851 q 1122 939 1157 1006 q 1192 1073 1234 1113 q 1275 1153 1323 1153 q 1357 1153 1360 1130 q 1362 1106 1362 1100 q 1362 1056 1331 966 q 1311 908 1280 836 q 1249 765 1215 694 q 1181 623 1147 558 q 1113 492 1087 446 q 1074 354 1067 266 q 1060 178 1060 100 q 1060 68 1062 32 q 1065 -3 1072 -36 q 1079 -68 1092 -93 q 1106 -118 1128 -130 q 1133 -133 1134 -136 q 1134 -140 1134 -141 q 1134 -146 1129 -148 q 1102 -161 1076 -161 q 1051 -161 1033 -148 q 1015 -135 1002 -114 q 990 -93 982 -66 q 975 -39 971 -11 q 967 17 966 44 q 964 71 964 92 q 964 124 966 164 q 968 203 973 249 z m 1317 971 q 1339 1032 1339 1072 q 1339 1077 1337 1100 q 1335 1124 1314 1124 q 1297 1124 1274 1095 q 1250 1066 1223 1001 q 1203 954 1185 896 q 1167 839 1150 774 q 1134 709 1120 640 q 1106 570 1095 499 q 1122 547 1153 607 q 1184 667 1214 730 q 1245 794 1272 856 q 1299 919 1317 971 z"},"o":{"x_min":0,"x_max":453,"ha":453,"o":"m 182 421 q 250 421 291 370 q 332 318 332 232 q 332 201 326 172 q 364 176 394 194 q 424 213 453 264 q 456 268 467 268 q 472 268 476 267 q 480 266 482 264 q 464 229 446 206 q 429 184 410 171 q 391 158 368 152 q 346 146 319 144 q 299 80 254 40 q 210 0 150 0 q 90 0 54 31 q 17 62 4 104 q -10 145 -10 184 q -10 197 -7 231 q -4 265 20 312 q 43 359 84 390 q 125 421 182 421 z m 104 84 q 111 122 148 146 q 185 171 236 171 l 293 171 q 296 186 298 202 q 300 217 300 233 q 300 266 292 294 q 285 322 272 343 q 258 364 241 376 q 224 388 204 388 q 180 388 158 370 q 136 353 119 324 q 102 295 92 256 q 82 218 82 176 q 82 144 86 124 q 91 104 104 84 z m 168 32 q 204 32 236 64 q 268 95 285 143 l 238 143 q 212 143 192 136 q 173 128 160 116 q 146 105 139 91 q 132 77 132 65 q 132 51 141 42 q 150 32 168 32 z"},"N":{"x_min":0,"x_max":1303,"ha":1303,"o":"m 375 166 q 364 168 364 179 q 364 190 373 195 q 401 196 426 211 q 451 226 472 250 q 493 274 508 304 q 524 335 532 368 q 541 403 541 431 q 541 445 536 470 q 532 496 512 521 q 491 546 460 558 q 430 571 394 571 q 331 571 282 545 q 233 519 198 476 q 162 434 141 380 q 120 325 116 285 q 111 245 111 222 q 111 190 118 148 q 125 105 149 64 q 173 22 211 -2 q 249 -25 300 -25 q 304 -25 308 -25 q 386 -22 439 31 q 492 84 536 180 q 580 277 624 412 q 667 548 725 715 q 774 855 816 954 q 857 1053 896 1118 q 934 1182 972 1216 q 1009 1250 1051 1261 q 1059 1263 1066 1263 q 1081 1263 1087 1258 q 1093 1252 1093 1247 q 1093 1238 1080 1225 q 1054 1200 1038 1143 q 1023 1086 1015 1008 q 1007 930 1004 836 q 1000 742 997 643 q 994 544 990 445 q 985 346 974 257 q 963 168 944 95 q 925 22 893 -25 q 937 5 972 52 q 1006 98 1034 154 q 1061 210 1082 272 q 1104 335 1120 396 q 1136 456 1148 511 q 1160 566 1170 609 q 1191 700 1218 786 q 1244 873 1277 950 q 1310 1026 1350 1090 q 1391 1153 1440 1200 q 1488 1246 1545 1272 q 1602 1297 1669 1297 q 1720 1297 1765 1281 q 1810 1265 1845 1236 q 1850 1232 1850 1227 q 1850 1222 1847 1218 q 1844 1214 1841 1214 q 1838 1213 1837 1213 q 1833 1213 1829 1216 q 1797 1242 1756 1257 q 1716 1272 1669 1272 q 1577 1272 1504 1220 q 1432 1169 1376 1084 q 1320 998 1279 888 q 1238 778 1209 661 q 1194 598 1178 523 q 1161 448 1140 370 q 1119 292 1092 218 q 1065 143 1028 81 q 991 19 943 -24 q 895 -67 832 -82 q 829 -82 827 -82 q 817 -82 816 -78 q 815 -73 815 -72 q 815 -64 824 -57 q 849 -39 862 16 q 875 71 882 151 q 888 231 891 330 q 894 428 898 532 q 903 637 910 742 q 918 847 934 940 q 951 1033 979 1108 q 1007 1183 1051 1227 q 1023 1225 994 1199 q 965 1173 938 1132 q 910 1090 884 1037 q 859 984 836 928 q 813 872 793 818 q 773 763 758 719 q 717 602 683 498 q 649 395 616 308 q 583 221 548 152 q 513 83 472 34 q 430 -14 379 -41 q 328 -68 261 -70 q 254 -70 247 -70 q 183 -70 138 -44 q 92 -18 65 28 q 38 74 34 113 q 31 152 31 171 q 31 213 42 266 q 52 320 82 381 q 112 442 157 490 q 202 537 261 566 q 320 596 391 596 q 432 596 468 582 q 503 568 526 540 q 549 511 554 481 q 560 451 560 432 q 560 402 552 365 q 544 328 527 293 q 510 258 487 230 q 464 202 436 185 q 407 168 375 166 z"},"+":{"x_min":0,"x_max":310,"ha":310,"o":"m 254 451 q 263 451 268 445 q 273 439 274 434 q 275 430 275 428 q 275 424 272 420 q 270 415 262 415 q 243 417 220 418 q 198 419 173 420 q 172 402 172 384 q 172 383 172 382 l 172 380 q 172 379 172 378 l 172 376 q 172 375 172 374 l 172 373 q 172 373 172 372 l 172 369 q 172 367 172 365 l 172 351 q 172 351 172 350 l 172 346 q 171 334 164 326 q 157 318 149 318 q 136 318 136 337 q 136 359 136 380 q 137 401 137 421 q 120 421 102 422 q 85 422 67 422 q 57 422 50 428 q 42 433 40 438 q 39 442 39 444 q 39 448 42 452 q 46 457 58 457 l 61 457 q 62 457 62 457 l 63 457 q 63 457 64 457 l 67 457 q 69 457 71 457 l 72 457 q 73 457 73 457 l 75 457 q 75 457 76 457 l 77 457 q 78 457 78 457 l 98 457 q 98 457 99 457 q 119 457 138 456 q 139 477 140 496 q 140 516 142 533 q 143 543 150 548 q 157 554 165 554 q 178 554 178 541 q 176 522 176 500 q 175 479 174 455 q 196 454 216 454 q 236 453 254 451 z"},"G":{"x_min":0,"x_max":995,"ha":995,"o":"m 405 398 q 382 396 359 396 q 306 396 244 412 q 182 427 126 468 q 69 510 35 574 q 1 637 1 719 q 1 801 34 872 q 66 943 122 995 q 178 1047 254 1076 q 331 1106 420 1106 q 474 1106 526 1094 q 579 1083 626 1060 q 682 1121 745 1155 q 808 1189 873 1189 q 877 1189 881 1189 q 957 1187 998 1138 q 1038 1090 1038 999 q 1038 933 1017 868 q 996 802 958 741 q 921 680 869 625 q 817 570 755 526 q 693 483 623 452 q 553 421 480 407 q 486 334 519 289 q 552 244 617 244 q 654 244 690 258 q 726 273 760 294 q 793 316 824 342 q 856 368 883 390 q 886 392 889 392 q 894 392 898 388 q 902 383 902 379 q 902 374 898 370 q 877 353 868 316 q 860 280 855 232 q 850 184 843 128 q 836 72 816 16 q 797 -39 760 -90 q 723 -141 658 -179 q 575 -229 483 -229 q 436 -229 392 -216 q 348 -203 313 -176 q 278 -150 254 -110 q 230 -70 224 -17 q 223 -14 223 -12 q 223 -9 226 -6 q 229 -2 234 -2 q 239 -2 242 -5 q 246 -8 247 -15 q 252 -61 271 -96 q 290 -131 318 -155 q 345 -179 380 -191 q 415 -203 452 -203 q 505 -203 552 -180 q 599 -157 637 -112 q 665 -80 682 -44 q 700 -7 712 30 q 724 68 732 106 q 741 143 750 178 q 759 213 771 244 q 783 275 802 299 q 746 259 694 238 q 642 216 596 216 q 554 216 522 230 q 489 243 466 267 q 442 291 427 324 q 412 358 405 398 z m 897 1160 q 843 1160 789 1122 q 735 1085 687 1023 q 732 990 764 944 q 795 898 808 839 q 809 837 809 835 q 809 831 806 828 q 802 824 797 824 q 787 824 786 835 q 776 891 748 934 q 719 978 677 1010 q 633 950 596 876 q 558 802 532 724 q 505 645 492 574 q 479 502 479 444 q 479 436 479 428 q 550 440 617 468 q 684 497 744 538 q 803 580 852 632 q 902 685 938 744 q 974 804 994 868 q 1014 933 1014 998 q 1014 1078 983 1119 q 952 1160 897 1160 z m 401 421 q 398 449 398 478 q 398 524 408 591 q 418 658 446 742 q 475 827 518 906 q 561 985 615 1047 q 543 1079 462 1079 q 385 1079 314 1048 q 244 1016 190 963 q 136 910 104 840 q 72 770 72 693 q 72 639 92 590 q 111 540 152 502 q 192 465 254 443 q 316 421 401 421 z"},"q":{"x_min":0,"x_max":509,"ha":509,"o":"m 374 402 q 367 307 355 216 q 343 125 332 31 q 392 73 439 132 q 486 192 509 264 q 510 268 523 268 q 528 268 533 267 q 538 266 538 265 q 538 264 538 264 q 511 177 459 112 q 407 48 343 4 q 380 -80 403 -173 q 426 -266 426 -357 q 426 -381 424 -408 q 421 -434 412 -456 q 403 -478 386 -492 q 369 -507 340 -507 q 305 -507 282 -482 q 259 -457 246 -416 q 232 -374 227 -320 q 222 -266 222 -233 q 221 -200 221 -194 q 221 -141 225 -85 q 229 -29 234 23 q 240 75 245 116 q 250 157 253 178 q 239 145 222 113 q 204 81 184 56 q 164 31 142 16 q 119 0 96 0 q 47 0 19 31 q -9 62 -14 96 q -20 129 -20 151 q -20 180 -12 222 q -4 265 24 312 q 51 358 94 389 q 137 420 194 420 q 223 420 242 409 q 261 398 272 379 q 273 384 274 388 q 274 393 275 398 q 277 411 295 418 q 313 424 333 424 q 350 424 362 419 q 374 414 374 405 q 374 403 374 402 z m 110 35 q 127 35 144 50 q 162 66 178 90 q 195 115 210 146 q 225 177 236 208 q 247 238 254 266 q 260 293 260 311 q 260 325 258 340 q 255 354 249 366 q 243 377 233 384 q 223 391 206 391 q 177 391 152 364 q 128 338 110 298 q 92 259 82 213 q 71 167 70 146 q 70 124 70 120 q 70 85 79 60 q 88 35 110 35 z m 398 -364 q 398 -280 378 -192 q 357 -105 326 -28 q 325 -45 320 -84 q 314 -124 310 -174 q 305 -223 303 -262 q 301 -301 301 -324 q 301 -350 304 -384 q 306 -417 318 -446 q 329 -474 352 -474 q 368 -474 378 -461 q 387 -448 392 -430 q 396 -412 397 -394 q 398 -375 398 -364 z"},"d":{"x_min":0,"x_max":550,"ha":550,"o":"m 366 389 q 365 379 362 358 q 359 336 356 307 q 353 278 351 245 q 349 212 349 179 q 349 151 351 124 q 353 98 358 78 q 364 59 374 47 q 383 35 397 35 q 415 35 432 48 q 449 62 464 83 q 480 104 494 130 q 507 156 518 182 q 530 207 538 229 q 546 251 550 264 q 550 266 554 267 q 558 268 563 268 q 569 268 574 267 q 579 266 579 265 q 579 264 579 264 q 569 232 552 186 q 534 141 509 99 q 484 57 451 28 q 418 -2 376 -2 q 322 -2 290 48 q 259 98 256 186 q 245 157 230 124 q 214 91 194 64 q 174 36 150 18 q 125 0 96 0 q 47 0 19 31 q -9 62 -14 96 q -20 129 -20 151 q -20 180 -12 222 q -4 265 24 312 q 51 358 94 389 q 137 420 194 420 q 220 420 238 410 q 257 401 268 385 q 275 449 286 518 q 298 587 314 654 q 331 721 352 782 q 372 842 397 888 q 422 934 452 961 q 482 988 516 988 q 553 988 574 960 q 594 933 594 884 q 594 848 582 804 q 571 761 552 715 q 534 669 510 622 q 486 575 461 532 q 436 489 411 452 q 386 415 366 389 z m 521 956 q 498 956 478 923 q 459 890 443 839 q 427 788 414 726 q 402 664 393 608 q 384 551 379 506 q 374 462 372 445 q 389 469 410 502 q 430 535 452 573 q 473 611 494 652 q 514 693 530 734 q 546 774 556 811 q 566 848 566 879 q 566 956 521 956 z m 110 35 q 127 35 144 50 q 162 66 178 90 q 195 115 210 146 q 225 177 236 208 q 247 238 254 266 q 260 293 260 311 q 260 325 258 340 q 255 354 249 366 q 243 377 233 384 q 223 391 206 391 q 177 391 152 364 q 128 338 110 298 q 92 259 82 213 q 71 167 70 146 q 70 124 70 120 q 70 85 79 60 q 88 35 110 35 z"},"1":{"x_min":0,"x_max":356,"ha":356,"o":"m 325 897 q 307 858 292 796 q 276 733 264 659 q 252 585 243 506 q 234 426 228 353 q 223 280 220 220 q 217 159 217 124 l 217 117 q 217 117 217 116 l 217 111 q 217 107 217 104 l 217 102 q 217 101 217 100 l 217 78 q 217 77 217 76 q 217 51 219 27 q 219 13 206 6 q 193 0 178 0 q 162 0 150 6 q 137 13 137 27 l 137 38 l 136 59 q 136 136 144 228 q 151 319 165 412 q 179 505 198 594 q 218 684 241 757 q 214 716 186 679 q 159 642 134 612 q 108 581 86 558 q 64 536 47 524 q 44 522 41 522 q 40 522 38 522 q 35 523 33 526 q 31 529 31 533 q 31 537 35 540 q 55 554 84 588 q 114 621 148 667 q 182 713 218 767 q 254 821 287 876 q 292 884 296 892 q 300 900 305 908 q 306 912 312 912 q 317 912 322 908 q 326 905 326 901 q 326 899 325 897 z"},"5":{"x_min":0,"x_max":552,"ha":552,"o":"m 141 578 q 135 578 130 578 q 108 578 89 586 q 70 593 70 605 q 70 668 73 744 q 76 821 84 910 q 178 910 233 910 q 288 911 304 911 q 383 911 464 907 q 474 906 479 902 q 484 899 484 895 q 484 895 484 892 q 483 890 478 886 q 473 883 464 883 q 441 883 406 884 q 371 884 330 884 q 290 885 247 886 q 204 886 165 886 q 162 853 160 814 q 157 774 156 735 q 154 696 154 674 q 153 651 153 641 q 153 620 154 605 q 170 606 186 606 q 255 606 317 590 q 379 574 426 536 q 473 499 497 443 q 521 387 521 314 q 521 254 504 196 q 487 138 454 93 q 421 48 372 20 q 324 -8 261 -8 q 211 -8 168 8 q 126 24 96 53 q 65 82 48 122 q 30 162 30 211 q 30 226 45 226 q 60 226 60 211 q 60 174 73 139 q 86 104 110 77 q 133 50 166 34 q 199 17 238 17 q 284 17 320 44 q 357 70 382 114 q 407 158 420 214 q 433 271 433 331 q 433 462 368 520 q 302 579 175 579 q 158 579 141 578 z"}}}
